<svg width="16" height="20" viewBox="0 0 16 20" fill="none" xmlns="http://www.w3.org/2000/svg">
<path d="M7.70264 13.0396C6.83838 13.0396 6.13525 13.7416 6.13525 14.6045C6.13525 15.4674 6.83838 16.1694 7.70264 16.1694C8.56689 16.1694 9.27002 15.4674 9.27002 14.6045C9.27002 13.7416 8.56689 13.0396 7.70264 13.0396ZM7.70264 15.6694C7.11401 15.6694 6.63525 15.1917 6.63525 14.6045C6.63525 14.0173 7.11401 13.5396 7.70264 13.5396C8.29126 13.5396 8.77002 14.0173 8.77002 14.6045C8.77002 15.1917 8.29126 15.6694 7.70264 15.6694Z" fill="white"/>
<path d="M7.71109 11.7773C7.70929 11.7773 7.70753 11.7775 7.70573 11.7775C7.70467 11.7775 7.70363 11.7773 7.70255 11.7773C7.6983 11.7773 7.69423 11.778 7.68999 11.778C5.07626 11.7918 3.01506 14.3418 2.92838 14.4507C2.85587 14.5419 2.85587 14.671 2.92838 14.7622C3.00854 14.8629 4.77811 17.0506 7.11128 17.3898C7.30217 17.4303 7.49974 17.4525 7.70255 17.4525C7.87863 17.4525 8.05028 17.4342 8.21759 17.4035C10.5967 17.1104 12.4123 14.8642 12.4936 14.7622C12.5661 14.671 12.5661 14.5419 12.4936 14.4507C12.4066 14.3416 10.3346 11.7773 7.71109 11.7773ZM10.0448 14.615C10.0448 15.7316 9.25578 16.6664 8.20532 16.8969C8.04254 16.9194 7.87825 16.9354 7.71109 16.9354C7.52893 16.9354 7.35013 16.9167 7.17323 16.8901C6.136 16.6497 5.36002 15.7221 5.36002 14.615C5.36002 13.4107 6.27753 12.4166 7.45168 12.2912C7.53645 12.285 7.62106 12.2777 7.70694 12.2776C7.75644 12.2777 7.80489 12.2818 7.85362 12.285C7.88396 12.2862 7.91418 12.2878 7.94437 12.2898C9.12268 12.411 10.0448 13.4075 10.0448 14.615ZM3.45303 14.6063C3.73257 14.2921 4.43188 13.5666 5.36238 13.0079C5.04623 13.4652 4.86002 14.0185 4.86002 14.615C4.86002 15.1978 5.03737 15.7399 5.34045 16.1911C4.42134 15.6342 3.73051 14.9177 3.45303 14.6063ZM10.0535 16.2073C10.3633 15.7529 10.5448 15.2048 10.5448 14.615C10.5448 14.0116 10.3537 13.4527 10.0309 12.9924C10.9747 13.5531 11.6862 14.2893 11.9687 14.6064C11.6884 14.9211 10.9862 15.6482 10.0535 16.2073Z" fill="white"/>
<path d="M3.86227 8.30872H5.95187V10.3984C5.95187 10.5365 6.06369 10.6484 6.20187 10.6484H9.25656C9.39474 10.6484 9.50656 10.5365 9.50656 10.3984V8.30872H11.5962C11.7343 8.30872 11.8462 8.19678 11.8462 8.05872V5.00415C11.8462 4.86609 11.7343 4.75415 11.5962 4.75415H9.50656V2.66455C9.50656 2.52649 9.39474 2.41455 9.25656 2.41455H6.20187C6.06369 2.41455 5.95187 2.52649 5.95187 2.66455V4.75415H3.86227C3.72409 4.75415 3.61227 4.86609 3.61227 5.00415V8.05872C3.61227 8.19678 3.72409 8.30872 3.86227 8.30872ZM4.11227 5.25415H6.20187C6.34006 5.25415 6.45187 5.14221 6.45187 5.00415V2.91455H9.00656V5.00415C9.00656 5.14221 9.11838 5.25415 9.25656 5.25415H11.3462V7.80872H9.25656C9.11838 7.80872 9.00656 7.92065 9.00656 8.05872V10.1484H6.45187V8.05872C6.45187 7.92065 6.34006 7.80872 6.20187 7.80872H4.11227V5.25415Z" fill="white"/>
<path d="M13.3271 0H2.13135C0.956055 0 0 0.956177 0 2.13135V17.8687C0 19.0438 0.956055 20 2.13135 20H13.3271C14.5024 20 15.4585 19.0438 15.4585 17.8687V2.13135C15.4585 0.956177 14.5024 0 13.3271 0ZM14.9585 17.8687C14.9585 18.7682 14.2266 19.5 13.3271 19.5H2.13135C1.23193 19.5 0.5 18.7682 0.5 17.8687V2.13135C0.5 1.23181 1.23193 0.5 2.13135 0.5H13.3271C14.2266 0.5 14.9585 1.23181 14.9585 2.13135V17.8687Z" fill="white"/>
</svg>
