<svg width="21" height="21" viewBox="0 0 21 21" fill="none" xmlns="http://www.w3.org/2000/svg">
<path d="M17.9338 14.3683L13.8054 13.4334C13.5783 13.3819 13.4197 13.1833 13.4197 12.9502V11.6401C14.8052 10.6593 15.7207 9.01426 15.7331 7.14962C16.3375 5.09115 16.2444 3.52689 15.4561 2.50028C14.6639 1.46867 13.4299 1.32555 13.0199 1.3071C12.0693 0.150046 10.8945 0.0266526 9.77049 0.00179464C8.01317 -0.0430522 6.46446 0.754582 5.51006 2.17418C4.55567 3.59365 4.39934 5.39418 5.09155 6.99048C5.12513 7.06761 5.1505 7.12719 5.16664 7.16512C5.18414 9.04204 6.11601 10.6959 7.52111 11.6703V12.9519C7.52111 13.1842 7.36298 13.3828 7.13668 13.4347L3.06923 14.3677C1.09202 14.7951 0.411845 16.5801 0.182473 17.6062C0.0691961 18.1124 0.00256281 19.2535 0 20.7371C0 20.8068 0.0274222 20.8737 0.0766283 20.923C0.125834 20.9723 0.192724 21 0.262433 21H20.7376C20.8073 21 20.8742 20.9723 20.9234 20.923C20.9726 20.8737 21 20.8069 21 20.7372C20.9979 19.2544 20.9316 18.1131 20.818 17.6062C20.5887 16.5803 19.9085 14.7951 17.9338 14.3683ZM14.6268 16.6309C15.0725 16.6309 15.4348 16.9934 15.4348 17.439C15.4348 17.8847 15.0725 18.2472 14.6268 18.2472C14.1811 18.2472 13.8185 17.8847 13.8185 17.439C13.8185 16.9934 14.1811 16.6309 14.6268 16.6309ZM5.94574 2.46696C6.77815 1.22868 8.12286 0.525222 9.64825 0.525222C9.6849 0.525222 9.7218 0.525606 9.7587 0.526503C10.8302 0.550208 11.8602 0.660019 12.6837 1.7275C12.7347 1.79362 12.8144 1.83847 12.8982 1.8295C12.9112 1.82975 14.2677 1.80912 15.043 2.82407C15.5966 3.54848 15.7325 4.62503 15.4642 6.02106C14.6775 3.81729 12.8414 3.1968 12.7528 3.16811C12.6808 3.14492 12.6022 3.15645 12.5376 3.19502C12.4727 3.23346 12.4271 3.30086 12.413 3.37492C12.4112 3.38415 12.3669 3.60338 12.0804 3.79815C11.7331 4.03481 11.0001 4.2552 9.48551 3.96523C6.96286 3.48174 5.84118 5.27563 5.40752 6.33438C4.99059 5.02175 5.17939 3.60665 5.94574 2.46696ZM5.69241 7.13488C5.72692 6.98727 5.91536 6.25656 6.40936 5.58651C7.12771 4.61205 8.12926 4.24034 9.38658 4.48059C10.7679 4.74518 11.7836 4.65459 12.4058 4.21099C12.615 4.06185 12.7418 3.89809 12.8185 3.76086C13.3888 4.02699 14.8439 4.91294 15.2073 7.13093C15.197 9.85454 13.0674 12.0671 10.4499 12.0671C7.83372 12.0671 5.70479 9.85666 5.69241 7.13488ZM10.4499 12.592C11.3321 12.592 12.163 12.364 12.8948 11.9657V12.9502C12.8948 13.3272 13.0982 13.6581 13.4115 13.8351C12.7118 14.7315 11.646 15.2634 10.4986 15.2634C9.34044 15.2634 8.26955 14.7241 7.57062 13.8151C7.861 13.633 8.04597 13.3123 8.04597 12.9519V11.9863C8.768 12.371 9.5839 12.592 10.4499 12.592ZM0.526147 20.4752C0.535373 19.1745 0.597393 18.1556 0.694524 17.7208C0.896731 16.8171 1.48823 15.2464 3.18328 14.8799L6.09131 14.2129V16.0409C5.26161 16.1679 4.62358 16.8843 4.62358 17.7489V18.7901C4.62358 18.935 4.74096 19.0525 4.88602 19.0525H5.48085C5.6259 19.0525 5.74328 18.935 5.74328 18.7901C5.74328 18.6452 5.6259 18.5277 5.48085 18.5277H5.14845V17.7489C5.14845 17.0844 5.6892 16.5436 6.35374 16.5436C7.01828 16.5436 7.55904 17.0844 7.55904 17.7489V18.5277H7.22638C7.08133 18.5277 6.96395 18.6452 6.96395 18.7901C6.96395 18.935 7.08133 19.0525 7.22638 19.0525H7.82147C7.96652 19.0525 8.0839 18.935 8.0839 18.7901V17.7489C8.0839 16.8843 7.44587 16.1679 6.61618 16.0409V14.0925L7.04482 13.9942C7.83755 15.1198 9.11588 15.7883 10.4986 15.7883C11.8749 15.7883 13.1529 15.1226 13.9461 14.0033L14.3613 14.0973V16.1329C13.753 16.2564 13.2936 16.795 13.2936 17.439C13.2936 18.174 13.8918 18.772 14.6268 18.772C15.3618 18.772 15.9597 18.174 15.9597 17.439C15.9597 16.7929 15.4973 16.2534 14.8861 16.1323V14.2162L17.8206 14.8807C19.5123 15.2464 20.1038 16.8171 20.306 17.7208C20.4034 18.1562 20.4651 19.1751 20.4741 20.4752H0.526147Z" fill="white"/>
</svg>
