<svg width="19" height="19" viewBox="0 0 19 19" fill="none" xmlns="http://www.w3.org/2000/svg">
<path d="M12.6667 18.0096H6.33333C3.44375 18.0096 1.78125 16.3471 1.78125 13.4575V5.54085C1.78125 2.65127 3.44375 0.98877 6.33333 0.98877H12.6667C15.5563 0.98877 17.2188 2.65127 17.2188 5.54085V13.4575C17.2188 16.3471 15.5563 18.0096 12.6667 18.0096ZM6.33333 2.17627C4.06917 2.17627 2.96875 3.27669 2.96875 5.54085V13.4575C2.96875 15.7217 4.06917 16.8221 6.33333 16.8221H12.6667C14.9308 16.8221 16.0312 15.7217 16.0312 13.4575V5.54085C16.0312 3.27669 14.9308 2.17627 12.6667 2.17627H6.33333Z" fill="white"/>
<path d="M14.6459 7.32292H13.0625C12.7766 7.32312 12.4934 7.26695 12.2291 7.15762C11.9649 7.04828 11.7248 6.88793 11.5226 6.68573C11.3204 6.48353 11.1601 6.24344 11.0507 5.97921C10.9414 5.71498 10.8852 5.43179 10.8854 5.14583V3.5625C10.8865 3.40535 10.9494 3.25493 11.0605 3.1438C11.1716 3.03268 11.322 2.96979 11.4792 2.96875C11.6363 2.96979 11.7868 3.03268 11.8979 3.1438C12.009 3.25493 12.0719 3.40535 12.0729 3.5625V5.14583C12.0729 5.40829 12.1772 5.65999 12.3628 5.84557C12.5484 6.03116 12.8001 6.13542 13.0625 6.13542H14.6459C14.8033 6.13542 14.9543 6.19797 15.0657 6.30932C15.177 6.42067 15.2396 6.57169 15.2396 6.72917C15.2396 6.88664 15.177 7.03766 15.0657 7.14901C14.9543 7.26036 14.8033 7.32292 14.6459 7.32292Z" fill="white"/>
<path d="M9.49998 10.8862H6.33331C6.17616 10.8852 6.02574 10.8223 5.91461 10.7112C5.80349 10.6001 5.7406 10.4496 5.73956 10.2925C5.7406 10.1353 5.80349 9.98491 5.91461 9.87378C6.02574 9.76266 6.17616 9.69977 6.33331 9.69873H9.49998C9.65713 9.69977 9.80755 9.76266 9.91868 9.87378C10.0298 9.98491 10.0927 10.1353 10.0937 10.2925C10.0927 10.4496 10.0298 10.6001 9.91868 10.7112C9.80755 10.8223 9.65713 10.8852 9.49998 10.8862Z" fill="white"/>
<path d="M12.6666 14.0513H6.33331C6.17616 14.0502 6.02574 13.9873 5.91461 13.8762C5.80349 13.7651 5.7406 13.6147 5.73956 13.4575C5.7406 13.3004 5.80349 13.1499 5.91461 13.0388C6.02574 12.9277 6.17616 12.8648 6.33331 12.8638H12.6666C12.8238 12.8648 12.9742 12.9277 13.0853 13.0388C13.1965 13.1499 13.2594 13.3004 13.2604 13.4575C13.2594 13.6147 13.1965 13.7651 13.0853 13.8762C12.9742 13.9873 12.8238 14.0502 12.6666 14.0513Z" fill="white"/>
</svg>
