<svg width="14" height="14" viewBox="0 0 14 14" fill="none" xmlns="http://www.w3.org/2000/svg">
<path d="M8.75033 13.2707H5.25033C2.08283 13.2707 0.729492 11.9173 0.729492 8.74984V5.24984C0.729492 2.08234 2.08283 0.729004 5.25033 0.729004H6.41699C6.53279 0.729768 6.64363 0.776107 6.72551 0.857989C6.80739 0.939871 6.85373 1.05071 6.85449 1.1665C6.85373 1.2823 6.80739 1.39314 6.72551 1.47502C6.64363 1.5569 6.53279 1.60324 6.41699 1.604H5.25033C2.56116 1.604 1.60449 2.56067 1.60449 5.24984V8.74984C1.60449 11.439 2.56116 12.3957 5.25033 12.3957H8.75033C11.4395 12.3957 12.3962 11.439 12.3962 8.74984V7.58317C12.3962 7.46714 12.4423 7.35586 12.5243 7.27381C12.6063 7.19176 12.7176 7.14567 12.8337 7.14567C12.9497 7.14567 13.061 7.19176 13.143 7.27381C13.2251 7.35586 13.2712 7.46714 13.2712 7.58317V8.74984C13.2712 11.9173 11.9178 13.2707 8.75033 13.2707Z" fill="white"/>
<path d="M4.95897 10.3193C4.61618 10.3244 4.28515 10.1945 4.0373 9.95766C3.89449 9.8085 3.7889 9.62774 3.72909 9.43009C3.66929 9.23244 3.65697 9.02347 3.69313 8.82016L3.94397 7.06432C4.01283 6.6845 4.18893 6.33231 4.45147 6.04932L9.04813 1.45266C10.209 0.291823 11.3873 0.291823 12.5481 1.45266C12.8279 1.68888 13.0509 1.98517 13.2003 2.31946C13.3498 2.65375 13.422 3.01745 13.4115 3.38349C13.3177 3.99034 13.0118 4.54429 12.5481 4.94682L7.95147 9.54349C7.66848 9.80603 7.31629 9.98213 6.93647 10.051L5.18063 10.3018C5.10765 10.3161 5.03328 10.322 4.95897 10.3193ZM9.66647 2.07099L5.0698 6.66766C4.94059 6.81626 4.85038 6.99467 4.8073 7.18682L4.55647 8.94266C4.54113 9.01194 4.54211 9.08383 4.55932 9.15267C4.57653 9.22151 4.6095 9.28541 4.65563 9.33932C4.70955 9.38546 4.77344 9.41843 4.84228 9.43564C4.91112 9.45285 4.98302 9.45382 5.0523 9.43849L6.80813 9.18766C7.00072 9.14581 7.17943 9.05546 7.3273 8.92516L11.924 4.32849C12.2387 4.06417 12.4529 3.69959 12.5306 3.29599C12.5258 3.05893 12.4689 2.82582 12.3641 2.61314C12.2593 2.40045 12.109 2.21339 11.924 2.06516C10.99 1.13124 10.3484 1.39432 9.66588 2.07099H9.66647Z" fill="white"/>
<path d="M11.5791 5.73387C11.5395 5.7342 11.5001 5.7283 11.4624 5.71637C10.7043 5.5005 10.0139 5.09466 9.4565 4.53729C8.89913 3.97992 8.49329 3.28947 8.27742 2.53137C8.24676 2.41923 8.26136 2.29953 8.3181 2.19806C8.37484 2.09659 8.46916 2.02146 8.58076 1.98887C8.63591 1.97336 8.69359 1.96892 8.75047 1.97579C8.80735 1.98267 8.86231 2.00072 8.91218 2.02891C8.96206 2.0571 9.00587 2.09487 9.04109 2.14006C9.07632 2.18525 9.10226 2.23695 9.11742 2.2922C9.29216 2.90591 9.62069 3.46485 10.0719 3.91605C10.5231 4.36726 11.082 4.6958 11.6958 4.87053C11.8078 4.90246 11.9026 4.97747 11.9594 5.07915C12.0163 5.18082 12.0306 5.30087 11.9991 5.41303C11.9749 5.50569 11.9204 5.5876 11.8443 5.64574C11.7682 5.70387 11.6749 5.73489 11.5791 5.73387Z" fill="white"/>
</svg>
