<svg width="16" height="16" viewBox="0 0 16 16" fill="none" xmlns="http://www.w3.org/2000/svg">
<path fill-rule="evenodd" clip-rule="evenodd" d="M11.1007 5.11293L8.43899 2.83175C8.31472 2.72281 8.15784 2.66707 8.00013 2.66699C7.89223 2.66694 7.78393 2.69294 7.68544 2.74577C7.64154 2.76926 7.59984 2.79794 7.56128 2.83175L4.89959 5.11293C4.62003 5.35253 4.58763 5.7734 4.82723 6.05296C5.06683 6.33253 5.4877 6.36492 5.76726 6.12532L7.33342 4.78305V9.94614C7.33342 10.3143 7.6319 10.6128 8.00009 10.6128C8.36828 10.6128 8.66676 10.3143 8.66676 9.94614L8.66676 4.78297L10.233 6.12532C10.5126 6.36492 10.9334 6.33253 11.173 6.05296C11.4126 5.7734 11.3802 5.35253 11.1007 5.11293ZM4.00008 9.33366C4.00008 8.96547 4.29856 8.66699 4.66675 8.66699H5.66675C6.03494 8.66699 6.33341 8.36852 6.33341 8.00033C6.33341 7.63214 6.03494 7.33366 5.66675 7.33366H4.66675C3.56218 7.33366 2.66675 8.22909 2.66675 9.33366V11.3337C2.66675 12.4382 3.56218 13.3337 4.66675 13.3337H11.3334C12.438 13.3337 13.3334 12.4382 13.3334 11.3337V9.33366C13.3334 8.22909 12.438 7.33366 11.3334 7.33366H10.3334C9.96522 7.33366 9.66675 7.63214 9.66675 8.00033C9.66675 8.36852 9.96522 8.66699 10.3334 8.66699H11.3334C11.7016 8.66699 12.0001 8.96547 12.0001 9.33366V11.3337C12.0001 11.7018 11.7016 12.0003 11.3334 12.0003H4.66675C4.29856 12.0003 4.00008 11.7018 4.00008 11.3337V9.33366Z" fill="#0F3659"/>
</svg>
