<svg width="289" height="309" viewBox="0 0 289 309" fill="none" xmlns="http://www.w3.org/2000/svg">
<g clip-path="url(#clip0_6832_16042)">
<path d="M223.731 122.665C218.168 133.863 209.238 151.972 205.137 160.289C203.927 162.742 204.933 165.712 207.388 166.921L238.006 182.081C240.462 183.297 243.44 182.292 244.658 179.839L263.143 142.568C265.843 137.118 263.612 130.513 258.158 127.809L260.878 122.325L240.829 112.397L238.258 117.582L238.183 117.548C232.77 115.075 226.377 117.337 223.731 122.665Z" fill="#F5F5F5"/>
<path d="M240.482 113.098L239.251 115.591L258.947 126.233L260.538 123.025L240.482 113.098Z" fill="#E0E0E0"/>
<path d="M244.139 104.529L265.23 114.971C266.235 115.469 266.647 116.689 266.149 117.694L262.703 124.641C262.38 125.292 261.59 125.553 260.944 125.234L238.562 114.152C237.91 113.829 237.648 113.04 237.969 112.394L241.414 105.447C241.912 104.443 243.133 104.031 244.139 104.529Z" fill="#F5F5F5"/>
<path d="M240.536 115.17C240.393 115.095 241.373 112.826 242.726 110.087C244.08 107.356 245.297 105.195 245.447 105.269C245.589 105.344 244.61 107.614 243.257 110.352C241.903 113.084 240.686 115.245 240.536 115.17Z" fill="#E0E0E0"/>
<path d="M243.175 116.475C243.032 116.4 244.012 114.13 245.365 111.392C246.719 108.66 247.936 106.499 248.086 106.574C248.228 106.649 247.249 108.918 245.896 111.657C244.542 114.389 243.325 116.549 243.175 116.475Z" fill="#E0E0E0"/>
<path d="M245.821 117.786C245.678 117.711 246.657 115.442 248.011 112.703C249.364 109.972 250.581 107.811 250.731 107.886C250.874 107.96 249.894 110.23 248.541 112.968C247.188 115.7 245.97 117.861 245.821 117.786Z" fill="#E0E0E0"/>
<path d="M248.466 119.091C248.323 119.016 249.303 116.746 250.656 114.008C252.01 111.276 253.227 109.116 253.377 109.19C253.519 109.265 252.54 111.535 251.187 114.273C249.833 117.005 248.616 119.166 248.466 119.091Z" fill="#E0E0E0"/>
<path d="M251.105 120.402C250.962 120.328 251.942 118.058 253.295 115.32C254.648 112.588 255.866 110.427 256.015 110.502C256.158 110.577 255.179 112.846 253.826 115.585C252.472 118.316 251.255 120.477 251.105 120.402Z" fill="#E0E0E0"/>
<path d="M253.751 121.707C253.608 121.632 254.587 119.363 255.941 116.624C257.294 113.893 258.511 111.732 258.661 111.807C258.804 111.881 257.824 114.151 256.471 116.889C255.118 119.621 253.9 121.782 253.751 121.707Z" fill="#E0E0E0"/>
<path d="M256.389 123.019C256.247 122.944 257.226 120.674 258.579 117.936C259.933 115.204 261.15 113.043 261.3 113.118C261.449 113.193 260.463 115.462 259.11 118.201C257.756 120.932 256.539 123.093 256.389 123.019Z" fill="#E0E0E0"/>
<path d="M259.035 124.323C258.892 124.248 259.871 121.979 261.225 119.24C262.578 116.509 263.796 114.348 263.945 114.423C264.088 114.498 263.109 116.767 261.755 119.506C260.402 122.237 259.184 124.398 259.035 124.323Z" fill="#E0E0E0"/>
<path d="M254.481 144.622L227.552 131.289C227.054 131.043 226.45 131.246 226.203 131.744L217.679 148.932C217.432 149.43 217.636 150.033 218.134 150.279L245.062 163.612C245.561 163.859 246.164 163.655 246.411 163.157L254.936 145.969C255.183 145.472 254.979 144.868 254.481 144.622Z" fill="#EBEBEB"/>
<path d="M244.692 161.791C244.692 161.791 244.733 161.669 244.828 161.465C244.937 161.227 245.073 160.928 245.243 160.568C245.63 159.746 246.168 158.625 246.841 157.211C248.249 154.296 250.241 150.199 252.656 145.211L252.765 145.524C245.821 142.106 237.061 137.791 227.553 133.109C227.465 133.136 228.295 132.858 227.941 132.98V132.994V133.014L227.914 133.048L227.88 133.116L227.812 133.252L227.676 133.524L227.404 134.074L226.867 135.161C226.506 135.881 226.152 136.602 225.799 137.315C225.091 138.742 224.391 140.142 223.704 141.521C222.33 144.273 221.011 146.93 219.753 149.451L219.63 149.091C226.948 152.774 233.185 155.913 237.639 158.156C239.822 159.27 241.563 160.16 242.815 160.799C243.386 161.098 243.842 161.336 244.202 161.519C244.522 161.689 244.685 161.784 244.692 161.798C244.692 161.812 244.542 161.744 244.229 161.608C243.876 161.445 243.427 161.234 242.862 160.969C241.604 160.364 239.856 159.528 237.673 158.482C233.144 156.28 226.819 153.195 219.385 149.574L219.141 149.458L219.263 149.213C220.508 146.686 221.82 144.029 223.18 141.27C223.86 139.891 224.561 138.484 225.261 137.057C225.615 136.344 225.969 135.623 226.329 134.903L226.867 133.816L227.139 133.265L227.275 132.994L227.343 132.858L227.377 132.79L227.397 132.756V132.735L227.411 132.729C227.057 132.844 227.893 132.559 227.805 132.593C237.292 137.315 246.032 141.664 252.962 145.116L253.173 145.218L253.071 145.429C250.534 150.423 248.453 154.534 246.97 157.456C246.263 158.829 245.698 159.916 245.29 160.718C245.113 161.057 244.964 161.329 244.848 161.553C244.746 161.737 244.692 161.825 244.692 161.818V161.791Z" fill="#E0E0E0"/>
<path d="M246.324 148.717C246.249 148.86 242.359 147.087 237.639 144.742C232.912 142.405 229.138 140.387 229.213 140.244C229.288 140.101 233.171 141.875 237.898 144.219C242.624 146.557 246.399 148.575 246.324 148.717Z" fill="#E0E0E0"/>
<path d="M244.882 151.619C244.807 151.761 240.917 149.988 236.197 147.644C231.471 145.306 227.696 143.288 227.771 143.145C227.846 143.003 231.729 144.776 236.456 147.12C241.182 149.458 244.957 151.476 244.882 151.619Z" fill="#E0E0E0"/>
<path d="M243.495 154.412C243.42 154.554 239.53 152.781 234.81 150.437C230.083 148.099 226.309 146.081 226.383 145.938C226.458 145.796 230.342 147.569 235.068 149.913C239.795 152.251 243.569 154.269 243.495 154.412Z" fill="#E0E0E0"/>
<path d="M257.103 127.075C257.029 127.218 252.792 125.267 247.637 122.712C242.475 120.157 238.353 117.969 238.428 117.827C238.503 117.684 242.74 119.634 247.895 122.189C253.05 124.744 257.178 126.932 257.103 127.075Z" fill="#E0E0E0"/>
<path d="M207.865 158.951C207.831 158.931 208.109 158.292 208.64 157.137C209.232 155.907 210.007 154.269 210.952 152.292C212.931 148.215 215.699 142.595 218.787 136.412C220.338 133.327 221.813 130.384 223.167 127.7C224.507 125.023 226.01 122.658 227.832 121.204C229.634 119.736 231.532 119.2 232.811 119.152C233.457 119.118 233.953 119.206 234.286 119.268C234.613 119.356 234.783 119.41 234.776 119.431C234.769 119.492 234.075 119.274 232.831 119.383C231.6 119.492 229.804 120.076 228.104 121.524C226.39 122.957 224.969 125.274 223.656 127.945C222.317 130.636 220.854 133.585 219.317 136.677C216.23 142.86 213.401 148.452 211.326 152.482C210.313 154.425 209.476 156.029 208.844 157.245C208.245 158.367 207.899 158.971 207.865 158.958V158.951Z" fill="white"/>
<path d="M241.767 182.17C241.767 182.17 241.325 181.803 240.604 181.062C240.251 180.688 239.809 180.24 239.271 179.744C238.734 179.248 238.156 178.65 237.449 178.059C236.082 176.829 234.361 175.47 232.375 174.077C230.369 172.711 228.084 171.318 225.581 170.068C223.065 168.838 220.576 167.859 218.27 167.098C215.958 166.364 213.829 165.821 212.027 165.481C211.129 165.277 210.306 165.175 209.585 165.053C208.864 164.924 208.239 164.849 207.728 164.795C206.708 164.672 206.137 164.584 206.144 164.543C206.144 164.502 206.715 164.516 207.749 164.57C208.266 164.591 208.898 164.632 209.626 164.733C210.354 164.829 211.19 164.897 212.102 165.08C213.931 165.372 216.087 165.882 218.433 166.589C220.773 167.336 223.296 168.301 225.839 169.551C228.376 170.822 230.675 172.235 232.688 173.642C234.681 175.076 236.388 176.482 237.728 177.76C238.421 178.371 238.986 178.996 239.503 179.52C240.026 180.043 240.441 180.518 240.774 180.913C241.448 181.701 241.801 182.149 241.767 182.177V182.17Z" fill="white"/>
<path d="M247.167 291.285L212.51 273.618C210.768 272.728 210.075 270.594 210.966 268.855L247.643 197.044C248.534 195.304 250.67 194.611 252.411 195.502L287.068 213.169C288.81 214.059 289.503 216.193 288.612 217.932L251.935 289.743C251.044 291.482 248.908 292.175 247.167 291.285Z" fill="#F5F5F5"/>
<path d="M245.841 282.547C245.807 282.615 240.427 279.937 233.824 276.567C227.22 273.197 221.888 270.417 221.922 270.349C221.956 270.281 227.336 272.959 233.946 276.329C240.55 279.699 245.882 282.479 245.848 282.547H245.841Z" fill="#E0E0E0"/>
<path d="M277.962 216.342C277.928 216.41 272.549 213.733 265.945 210.362C259.341 206.992 254.009 204.213 254.043 204.145C254.077 204.077 259.457 206.754 266.067 210.125C272.671 213.495 278.003 216.274 277.969 216.342H277.962Z" fill="#E0E0E0"/>
<path d="M233.171 275.928C233.103 275.894 240.53 261.231 249.752 243.176C258.974 225.115 266.502 210.505 266.57 210.539C266.638 210.573 259.212 225.237 249.99 243.298C240.768 261.353 233.239 275.962 233.171 275.935V275.928Z" fill="#E0E0E0"/>
<path d="M257.078 218.416L256.934 218.716C256.442 219.739 255.217 220.169 254.193 219.677L250.27 217.794L252.193 213.795L256.116 215.678C257.14 216.169 257.57 217.393 257.078 218.416Z" fill="#EBEBEB"/>
<path d="M246.049 213.488L246.193 213.188C246.685 212.165 247.91 211.736 248.934 212.228L252.857 214.111L250.933 218.111L247.01 216.227C245.987 215.735 245.557 214.511 246.049 213.488Z" fill="#E0E0E0"/>
<path d="M276.446 227.958L276.302 228.258C275.81 229.281 274.585 229.71 273.561 229.219L269.638 227.335L271.562 223.336L275.485 225.219C276.508 225.711 276.938 226.935 276.446 227.958Z" fill="#EBEBEB"/>
<path d="M265.417 223.035L265.562 222.735C266.053 221.712 267.279 221.282 268.302 221.774L272.226 223.657L270.303 227.657L266.379 225.773C265.355 225.282 264.925 224.058 265.417 223.035Z" fill="#E0E0E0"/>
<path d="M251.614 229.42L251.47 229.72C250.978 230.743 249.753 231.172 248.729 230.681L244.806 228.797L246.73 224.797L250.653 226.681C251.677 227.173 252.106 228.397 251.614 229.42Z" fill="#EBEBEB"/>
<path d="M240.607 224.543L240.751 224.243C241.243 223.22 242.469 222.791 243.492 223.282L247.415 225.166L245.492 229.165L241.568 227.282C240.545 226.79 240.115 225.566 240.607 224.543Z" fill="#E0E0E0"/>
<path d="M271.448 239.226L271.303 239.526C270.811 240.549 269.586 240.978 268.562 240.487L264.639 238.603L266.563 234.604L270.486 236.488C271.51 236.979 271.94 238.203 271.448 239.226Z" fill="#EBEBEB"/>
<path d="M260.443 234.357L260.588 234.057C261.08 233.035 262.305 232.605 263.328 233.097L267.251 234.981L265.328 238.98L261.405 237.096C260.381 236.604 259.951 235.38 260.443 234.357Z" fill="#E0E0E0"/>
<path d="M246.174 240.47L246.03 240.77C245.538 241.793 244.313 242.222 243.289 241.731L239.366 239.847L241.29 235.848L245.213 237.732C246.237 238.223 246.666 239.447 246.174 240.47Z" fill="#EBEBEB"/>
<path d="M235.166 235.605L235.31 235.304C235.802 234.282 237.027 233.852 238.051 234.344L241.974 236.228L240.05 240.227L236.127 238.343C235.103 237.851 234.674 236.627 235.166 235.605Z" fill="#E0E0E0"/>
<path d="M266.45 250.492L266.306 250.792C265.814 251.815 264.588 252.244 263.565 251.752L259.642 249.869L261.565 245.869L265.488 247.753C266.512 248.245 266.942 249.469 266.45 250.492Z" fill="#EBEBEB"/>
<path d="M255.447 245.622L255.592 245.322C256.084 244.299 257.309 243.87 258.333 244.361L262.256 246.245L260.332 250.244L256.409 248.361C255.385 247.869 254.955 246.645 255.447 245.622Z" fill="#E0E0E0"/>
<path d="M239.809 251.981L239.664 252.282C239.172 253.304 237.947 253.734 236.923 253.242L233 251.358L234.924 247.359L238.847 249.243C239.871 249.734 240.301 250.959 239.809 251.981Z" fill="#EBEBEB"/>
<path d="M228.792 247.111L228.937 246.811C229.429 245.788 230.654 245.359 231.678 245.85L235.601 247.734L233.677 251.733L229.754 249.849C228.73 249.358 228.3 248.134 228.792 247.111Z" fill="#E0E0E0"/>
<path d="M260.188 261.766L260.044 262.066C259.552 263.088 258.326 263.518 257.303 263.026L253.38 261.142L255.303 257.143L259.226 259.027C260.25 259.519 260.68 260.743 260.188 261.766Z" fill="#EBEBEB"/>
<path d="M249.179 256.894L249.323 256.593C249.815 255.571 251.04 255.141 252.064 255.633L255.987 257.517L254.063 261.516L250.14 259.632C249.117 259.141 248.687 257.916 249.179 256.894Z" fill="#E0E0E0"/>
<path d="M234.666 264.608L234.522 264.908C234.03 265.931 232.805 266.36 231.781 265.869L227.858 263.986L229.781 259.986L233.704 261.869C234.728 262.361 235.158 263.585 234.666 264.608Z" fill="#EBEBEB"/>
<path d="M223.638 259.679L223.782 259.379C224.274 258.356 225.499 257.926 226.523 258.418L230.446 260.302L228.522 264.301L224.599 262.417C223.576 261.926 223.146 260.702 223.638 259.679Z" fill="#E0E0E0"/>
<path d="M254.038 273.856L253.894 274.156C253.402 275.179 252.176 275.608 251.153 275.117L247.23 273.233L249.154 269.234L253.077 271.117C254.1 271.609 254.53 272.833 254.038 273.856Z" fill="#EBEBEB"/>
<path d="M243.036 268.988L243.18 268.688C243.672 267.665 244.897 267.236 245.921 267.727L249.844 269.611L247.92 273.61L243.997 271.726C242.974 271.235 242.544 270.011 243.036 268.988Z" fill="#E0E0E0"/>
<path d="M108.008 12.4078L77.7639 8.55823C75.8227 8.31114 74.0485 9.68315 73.8012 11.6227L65.6347 75.672C65.3874 77.6116 66.7606 79.3842 68.7019 79.6313L98.9461 83.4809C100.887 83.728 102.661 82.3559 102.909 80.4164L111.075 16.3671C111.323 14.4275 109.949 12.6549 108.008 12.4078Z" fill="#F5F5F5"/>
<path d="M96.152 77.2056C96.1452 77.2668 91.2689 76.696 85.2569 75.9281C79.2448 75.1603 74.3821 74.4944 74.3889 74.4332C74.3957 74.372 79.272 74.9428 85.2841 75.7107C91.2893 76.4785 96.1588 77.1444 96.152 77.2056Z" fill="#E0E0E0"/>
<path d="M102.531 17.4429C102.524 17.5041 97.6481 16.9333 91.636 16.1654C85.624 15.3976 80.7613 14.7317 80.7681 14.6705C80.7749 14.6093 85.6512 15.1801 91.6632 15.948C97.6685 16.7158 102.538 17.3817 102.531 17.4429Z" fill="#E0E0E0"/>
<path d="M84.5834 75.6155C84.5222 75.6087 86.1749 62.2836 88.2695 45.8598C90.3642 29.4293 92.1121 16.1177 92.1733 16.1245C92.2345 16.1313 90.5819 29.4565 88.4872 45.887C86.3925 62.3108 84.6446 75.6223 84.5902 75.6155H84.5834Z" fill="#E0E0E0"/>
<path d="M81.625 26.1883L81.9991 22.5801L85.4063 22.9334C86.4061 23.0353 87.127 23.9255 87.025 24.9244C86.9229 25.9233 86.032 26.6435 85.0323 26.5416L81.625 26.1883Z" fill="#EBEBEB"/>
<path d="M82.6044 22.6413L82.2304 26.2495L78.8231 25.8961C77.8233 25.7942 77.1024 24.904 77.2044 23.9052C77.3065 22.9063 78.1974 22.186 79.1971 22.2879L82.6044 22.6413Z" fill="#E0E0E0"/>
<path d="M99.1851 28.2063L99.5591 24.5981L102.966 24.9515C103.966 25.0534 104.687 25.9436 104.585 26.9425C104.483 27.9413 103.592 28.6616 102.592 28.5597L99.1851 28.2063Z" fill="#EBEBEB"/>
<path d="M100.164 24.6662L99.7904 28.2744L96.3831 27.921C95.3834 27.8191 94.6625 26.9289 94.7645 25.9301C94.8665 24.9312 95.7574 24.2109 96.7572 24.3128L100.164 24.6662Z" fill="#E0E0E0"/>
<path d="M80.5029 36.1839L80.877 32.5757L84.2843 32.929C85.284 33.031 86.0049 33.9211 85.9029 34.92C85.8009 35.9189 84.9099 36.6392 83.9102 36.5372L80.5029 36.1839Z" fill="#EBEBEB"/>
<path d="M81.4755 32.6437L81.1014 36.2519L77.6942 35.8986C76.6944 35.7966 75.9735 34.9065 76.0755 33.9076C76.1776 32.9087 77.0685 32.1884 78.0682 32.2904L81.4755 32.6437Z" fill="#E0E0E0"/>
<path d="M98.4575 38.2498L98.8316 34.6416L102.239 34.9949C103.239 35.0969 103.959 35.987 103.857 36.9859C103.755 37.9848 102.865 38.7051 101.865 38.6031L98.4575 38.2498Z" fill="#EBEBEB"/>
<path d="M99.4369 34.7091L99.0629 38.3173L95.6556 37.964C94.6558 37.8621 93.9349 36.9719 94.037 35.973C94.139 34.9742 95.0299 34.2539 96.0296 34.3558L99.4369 34.7091Z" fill="#E0E0E0"/>
<path d="M79.374 46.1863L79.7481 42.5781L83.1554 42.9315C84.1551 43.0334 84.876 43.9236 84.774 44.9224C84.672 45.9213 83.781 46.6416 82.7813 46.5397L79.374 46.1863Z" fill="#EBEBEB"/>
<path d="M80.3534 42.6462L79.9794 46.2544L76.5721 45.901C75.5724 45.7991 74.8515 44.9089 74.9535 43.91C75.0555 42.9112 75.9464 42.1909 76.9461 42.2928L80.3534 42.6462Z" fill="#E0E0E0"/>
<path d="M97.7366 48.2928L98.1106 44.6846L101.518 45.0379C102.518 45.1398 103.239 46.03 103.137 47.0289C103.035 48.0278 102.144 48.748 101.144 48.6461L97.7366 48.2928Z" fill="#EBEBEB"/>
<path d="M98.716 44.7458L98.3419 48.354L94.9346 48.0006C93.9349 47.8987 93.214 47.0085 93.316 46.0097C93.418 45.0108 94.309 44.2905 95.3087 44.3924L98.716 44.7458Z" fill="#E0E0E0"/>
<path d="M77.6602 56.7933L78.0342 53.1851L81.4415 53.5384C82.4412 53.6403 83.1621 54.5305 83.0601 55.5294C82.9581 56.5282 82.0672 57.2485 81.0674 57.1466L77.6602 56.7933Z" fill="#EBEBEB"/>
<path d="M78.6396 53.2531L78.2655 56.8613L74.8582 56.5079C73.8585 56.406 73.1376 55.5159 73.2396 54.517C73.3416 53.5181 74.2325 52.7978 75.2323 52.8997L78.6396 53.2531Z" fill="#E0E0E0"/>
<path d="M96.0432 58.6893L96.4173 55.0811L99.8245 55.4344C100.824 55.5363 101.545 56.4265 101.443 57.4254C101.341 58.4242 100.45 59.1445 99.4505 59.0426L96.0432 58.6893Z" fill="#EBEBEB"/>
<path d="M97.0158 55.1423L96.6417 58.7504L93.2344 58.3971C92.2347 58.2952 91.5138 57.405 91.6158 56.4061C91.7178 55.4073 92.6088 54.687 93.6085 54.7889L97.0158 55.1423Z" fill="#E0E0E0"/>
<path d="M77.1704 67.8831L77.5445 64.2749L80.9517 64.6283C81.9515 64.7302 82.6724 65.6203 82.5704 66.6192C82.4684 67.6181 81.5774 68.3384 80.5777 68.2364L77.1704 67.8831Z" fill="#EBEBEB"/>
<path d="M78.1498 64.3361L77.7758 67.9443L74.3685 67.5909C73.3687 67.489 72.6478 66.5989 72.7499 65.6C72.8519 64.6011 73.7428 63.8808 74.7425 63.9828L78.1498 64.3361Z" fill="#E0E0E0"/>
<path d="M94.6558 69.6839L95.0298 66.0757L98.4371 66.429C99.4368 66.531 100.158 67.4211 100.056 68.42C99.9537 69.4189 99.0628 70.1392 98.063 70.0372L94.6558 69.6839Z" fill="#EBEBEB"/>
<path d="M95.6352 66.1364L95.2611 69.7446L91.8538 69.3912C90.8541 69.2893 90.1332 68.3992 90.2352 67.4003C90.3372 66.4014 91.2281 65.6811 92.2279 65.783L95.6352 66.1364Z" fill="#E0E0E0"/>
<path d="M43.3982 36.3511L2.48639 50.2745C0.633989 50.905 -0.356175 52.9164 0.274793 54.7672L28.944 138.862C29.5749 140.712 31.5881 141.702 33.4405 141.071L74.3524 127.148C76.2048 126.517 77.1949 124.506 76.564 122.655L47.8948 38.5607C47.2638 36.7099 45.2506 35.7206 43.3982 36.3511Z" fill="#EBEBEB"/>
<path d="M21.1713 62.0254C21.8242 63.9484 20.7972 66.0345 18.8793 66.6868C16.9615 67.3391 14.8668 66.3131 14.2139 64.3969C13.561 62.4739 14.5879 60.3878 16.5058 59.7354C18.4305 59.0831 20.5184 60.1092 21.1713 62.0254Z" fill="#FAFAFA"/>
<path d="M41.4247 55.1352C42.0776 57.0583 41.0506 59.1444 39.1328 59.7967C37.2081 60.449 35.1202 59.4229 34.4673 57.5067C33.8144 55.5837 34.8413 53.4976 36.7592 52.8453C38.6839 52.193 40.7718 53.219 41.4247 55.1352Z" fill="#FAFAFA"/>
<path d="M27.5846 80.8345C28.2375 82.7575 27.2105 84.8436 25.2927 85.4959C23.368 86.1482 21.2801 85.1222 20.6272 83.206C19.9743 81.2829 21.0013 79.1968 22.9191 78.5445C24.8438 77.8922 26.9317 78.9182 27.5846 80.8345Z" fill="#FAFAFA"/>
<path d="M47.838 73.9443C48.4909 75.8673 47.464 77.9534 45.5461 78.6058C43.6214 79.2581 41.5335 78.232 40.8806 76.3158C40.2277 74.3928 41.2547 72.3067 43.1725 71.6544C45.0972 71.0021 47.1851 72.0281 47.838 73.9443Z" fill="#FAFAFA"/>
<path d="M33.9979 99.6431C34.6508 101.566 33.6239 103.652 31.706 104.304C29.7813 104.957 27.6934 103.931 27.0405 102.015C26.3876 100.098 27.4146 98.0054 29.3325 97.3531C31.2571 96.7008 33.345 97.7268 33.9979 99.6431Z" fill="#FAFAFA"/>
<path d="M54.2513 92.7529C54.9042 94.6759 53.8773 96.762 51.9594 97.4144C50.0347 98.0667 47.9468 97.0406 47.294 95.1244C46.6411 93.2014 47.668 91.1153 49.5859 90.463C51.5106 89.8106 53.5984 90.8367 54.2513 92.7529Z" fill="#FAFAFA"/>
<path d="M40.4112 118.452C41.0641 120.375 40.0372 122.461 38.1193 123.114C36.1947 123.766 34.1068 122.74 33.4539 120.824C32.801 118.901 33.8279 116.815 35.7458 116.162C37.6705 115.51 39.7584 116.536 40.4112 118.452Z" fill="#FAFAFA"/>
<path d="M60.6647 111.562C61.3176 113.485 60.2906 115.571 58.3727 116.223C56.4481 116.876 54.3602 115.85 53.7073 113.933C53.0544 112.01 54.0813 109.924 55.9992 109.272C57.9239 108.62 60.0118 109.646 60.6647 111.562Z" fill="#FAFAFA"/>
<path d="M19.199 60.0548C19.2738 60.0888 18.6278 61.5022 17.764 63.201C16.9003 64.9065 16.1386 66.252 16.0706 66.218C15.9958 66.184 16.6419 64.7706 17.5056 63.0719C18.3693 61.3663 19.131 60.0209 19.199 60.0548Z" fill="#E0E0E0"/>
<path d="M39.0306 53.1442C39.1054 53.1782 38.4593 54.5915 37.5956 56.2903C36.7319 57.9959 35.9701 59.3413 35.9021 59.3073C35.8273 59.2734 36.4734 57.86 37.3371 56.1612C38.2009 54.4556 38.9626 53.1102 39.0306 53.1442Z" fill="#E0E0E0"/>
<path d="M25.8029 78.8637C25.8777 78.8976 25.3065 80.379 24.5311 82.1729C23.7558 83.9668 23.0689 85.3937 22.9941 85.3666C22.9193 85.3326 23.4906 83.8513 24.2659 82.0574C25.0412 80.2635 25.7281 78.8365 25.8029 78.8637Z" fill="#E0E0E0"/>
<path d="M45.8045 71.9262C45.8793 71.9534 45.3896 73.4007 44.7095 75.147C44.0294 76.9002 43.4173 78.2932 43.3425 78.266C43.2677 78.2388 43.7574 76.7915 44.4375 75.0451C45.1176 73.292 45.7296 71.899 45.8045 71.9262Z" fill="#E0E0E0"/>
<path d="M31.6107 97.5912C31.6855 97.6252 31.1619 98.9774 30.4478 100.622C29.7337 102.266 29.0876 103.564 29.0196 103.537C28.9448 103.503 29.4684 102.151 30.1825 100.506C30.8966 98.8687 31.5359 97.5641 31.6107 97.5912Z" fill="#E0E0E0"/>
<path d="M52.3538 91.0202C52.4218 91.061 51.7961 92.3928 50.946 93.9965C50.0958 95.6001 49.3477 96.8776 49.2797 96.8368C49.2117 96.796 49.8374 95.4642 50.6875 93.8606C51.5376 92.2569 52.2857 90.9862 52.3538 91.0202Z" fill="#E0E0E0"/>
<path d="M38.5751 116.665C38.6431 116.706 37.963 118.085 37.0517 119.757C36.1403 121.422 35.3446 122.747 35.2698 122.706C35.2018 122.665 35.8819 121.286 36.7932 119.614C37.7046 117.949 38.5003 116.624 38.5751 116.665Z" fill="#E0E0E0"/>
<path d="M58.7806 109.17C58.8554 109.197 58.2841 110.78 57.502 112.69C56.7199 114.606 56.0262 116.128 55.9514 116.101C55.8766 116.074 56.4479 114.497 57.23 112.581C58.0121 110.665 58.7058 109.143 58.7806 109.17Z" fill="#E0E0E0"/>
<path d="M66.1598 121.632C66.187 121.707 59.9846 123.888 52.3063 126.504C44.628 129.121 38.3847 131.173 38.3575 131.098C38.3303 131.023 44.5328 128.842 52.2111 126.226C59.8893 123.617 66.1326 121.558 66.1598 121.632Z" fill="#E0E0E0"/>
<path d="M38.643 46.0161C38.6702 46.0909 32.4677 48.2721 24.7894 50.8882C17.1112 53.5043 10.8679 55.5564 10.8407 55.4817C10.8135 55.407 17.0159 53.2257 24.6942 50.6096C32.3725 47.9935 38.6158 45.9414 38.643 46.0161Z" fill="#E0E0E0"/>
<path d="M25.1364 54.5168C25.0956 54.5304 25.0616 54.5304 25.0276 54.5236C25.0139 54.5236 25.0003 54.5168 24.9867 54.5032L24.9731 54.4896V54.4828L25.252 54.3877C25.2656 54.4353 25.218 54.4964 25.1432 54.5236C25.0684 54.5508 24.9935 54.5304 24.9731 54.4828L25.252 54.3877C25.252 54.3877 25.252 54.3945 25.252 54.4013V54.4217C25.252 54.4217 25.2384 54.4489 25.2316 54.4624C25.2112 54.4896 25.184 54.51 25.1432 54.5236L25.1364 54.5168Z" fill="#E0E0E0"/>
<path d="M51.3133 126.525C51.2384 126.552 45.376 109.557 38.2214 88.574C31.0668 67.584 25.3268 50.5487 25.4016 50.5215C25.4764 50.4943 31.3388 67.4889 38.5003 88.4789C45.6549 109.462 51.3949 126.497 51.3201 126.525H51.3133Z" fill="#E0E0E0"/>
<path d="M11.5366 220.708L45.1526 213.544L59.1475 279.103C59.6397 281.409 58.1693 283.675 55.8613 284.167L30.5995 289.55C28.2915 290.042 26.0238 288.573 25.5315 286.267L11.5366 220.708Z" fill="#F5F5F5"/>
<path d="M36.7595 235.334L15.6282 239.837L22.0702 270.015L43.2016 265.512L36.7595 235.334Z" fill="#E0E0E0"/>
<path d="M7.72808 215.027L45.3481 207.01C46.1197 206.846 46.8783 207.337 47.0428 208.108L48.9367 216.98C49.1013 217.751 48.6094 218.509 47.8379 218.673L10.2178 226.69C9.44625 226.855 8.68767 226.363 8.5231 225.592L6.62921 216.72C6.46465 215.949 6.95653 215.191 7.72808 215.027Z" fill="#EBEBEB"/>
<path d="M12.0308 226.297C11.9288 226.317 11.2963 223.721 10.6094 220.507C9.92251 217.286 9.44645 214.664 9.54166 214.636C9.63687 214.616 10.2762 217.205 10.9631 220.426C11.65 223.647 12.126 226.27 12.0308 226.29V226.297Z" fill="#E0E0E0"/>
<path d="M15.2886 225.604C15.1866 225.624 14.5541 223.029 13.8672 219.814C13.1803 216.594 12.7043 213.971 12.7995 213.943C12.8947 213.923 13.534 216.512 14.2209 219.733C14.9078 222.954 15.3838 225.577 15.2886 225.597V225.604Z" fill="#E0E0E0"/>
<path d="M18.553 224.911C18.451 224.931 17.8185 222.335 17.1316 219.121C16.4447 215.9 15.9687 213.277 16.0639 213.25C16.1591 213.223 16.7984 215.819 17.4853 219.04C18.1722 222.261 18.6482 224.883 18.553 224.904V224.911Z" fill="#E0E0E0"/>
<path d="M21.8106 224.218C21.7086 224.238 21.0761 221.642 20.3892 218.428C19.7023 215.207 19.2262 212.584 19.3214 212.557C19.4167 212.537 20.0559 215.126 20.7428 218.347C21.4297 221.568 21.9058 224.19 21.8106 224.211V224.218Z" fill="#E0E0E0"/>
<path d="M25.075 223.525C24.973 223.545 24.3405 220.949 23.6536 217.735C22.9667 214.514 22.4906 211.892 22.5858 211.864C22.6811 211.844 23.3204 214.433 24.0073 217.654C24.6941 220.875 25.1702 223.498 25.075 223.518V223.525Z" fill="#E0E0E0"/>
<path d="M28.3328 222.825C28.2308 222.845 27.5983 220.249 26.9114 217.035C26.2245 213.814 25.7484 211.191 25.8437 211.164C25.9389 211.144 26.5782 213.733 27.2651 216.954C27.952 220.174 28.428 222.797 28.3328 222.818V222.825Z" fill="#E0E0E0"/>
<path d="M31.5904 222.132C31.4884 222.152 30.8559 219.556 30.169 216.342C29.4821 213.121 29.006 210.498 29.1012 210.471C29.1964 210.451 29.8357 213.04 30.5226 216.261C31.2095 219.482 31.6856 222.105 31.5904 222.125V222.132Z" fill="#E0E0E0"/>
<path d="M34.8548 221.438C34.7528 221.459 34.1203 218.863 33.4334 215.649C32.7465 212.428 32.2704 209.805 32.3656 209.778C32.4608 209.758 33.1001 212.346 33.787 215.567C34.4739 218.788 34.95 221.411 34.8548 221.432V221.438Z" fill="#E0E0E0"/>
<path d="M38.1126 220.745C38.0106 220.766 37.3781 218.17 36.6912 214.956C36.0043 211.735 35.5282 209.112 35.6234 209.085C35.7187 209.065 36.358 211.654 37.0448 214.874C37.7317 218.095 38.2078 220.718 38.1126 220.739V220.745Z" fill="#E0E0E0"/>
<path d="M41.3702 220.052C41.2682 220.072 40.6357 217.477 39.9488 214.263C39.2619 211.042 38.7858 208.419 38.881 208.392C38.983 208.371 39.6155 210.96 40.3024 214.181C40.9893 217.402 41.4654 220.025 41.3702 220.045V220.052Z" fill="#E0E0E0"/>
<path d="M44.6346 219.352C44.5326 219.373 43.9001 216.777 43.2132 213.563C42.5263 210.342 42.0502 207.719 42.1454 207.692C42.2406 207.672 42.8799 210.261 43.5668 213.481C44.2537 216.702 44.7298 219.325 44.6346 219.346V219.352Z" fill="#E0E0E0"/>
<path d="M47.8924 218.659C47.7904 218.679 47.1579 216.084 46.471 212.87C45.7841 209.649 45.308 207.026 45.4032 206.999C45.4984 206.978 46.1377 209.567 46.8246 212.788C47.5115 216.009 47.9876 218.632 47.8924 218.652V218.659Z" fill="#E0E0E0"/>
<path d="M31.4419 282.429L31.0546 280.614C30.8177 279.505 31.5242 278.416 32.6349 278.179L39.0402 276.814L40.2843 282.643L33.8791 284.007C32.7683 284.244 31.6788 283.538 31.4419 282.429Z" fill="#EBEBEB"/>
<path d="M46.9194 277.279L47.3067 279.093C47.5436 280.203 46.8372 281.292 45.7264 281.528L39.3212 282.893L38.077 277.065L44.4823 275.7C45.593 275.463 46.6825 276.169 46.9194 277.279Z" fill="#E0E0E0"/>
<path d="M48.5418 264.5L46.6853 264.527C45.5497 264.544 44.6179 263.641 44.6009 262.506L44.5026 255.963L50.4663 255.874L50.5646 262.417C50.5817 263.552 49.6774 264.483 48.5418 264.5Z" fill="#EBEBEB"/>
<path d="M46.4216 248.335L48.278 248.308C49.4137 248.291 50.3455 249.194 50.3625 250.329L50.4608 256.872L44.497 256.961L44.3987 250.418C44.3817 249.283 45.2859 248.352 46.4216 248.335Z" fill="#E0E0E0"/>
<path d="M55.5474 278.933L53.962 279.898C52.9922 280.489 51.7303 280.183 51.1393 279.214L47.7309 273.626L52.824 270.525L56.2324 276.112C56.8235 277.081 56.5173 278.342 55.5474 278.933Z" fill="#EBEBEB"/>
<path d="M45.5219 266.077L47.1073 265.112C48.0772 264.521 49.339 264.827 49.9301 265.796L53.3384 271.384L48.2453 274.485L44.8369 268.897C44.2459 267.928 44.5521 266.668 45.5219 266.077Z" fill="#E0E0E0"/>
<path d="M28.8484 272.072L29.0534 270.229C29.1788 269.101 30.1927 268.29 31.3215 268.416L37.8308 269.138L37.1722 275.061L30.6629 274.338C29.5341 274.213 28.723 273.2 28.8484 272.072Z" fill="#EBEBEB"/>
<path d="M45.1663 272.036L44.9612 273.879C44.8358 275.007 43.8219 275.818 42.6931 275.692L36.1838 274.97L36.8425 269.047L43.3517 269.769C44.4805 269.895 45.2917 270.908 45.1663 272.036Z" fill="#E0E0E0"/>
<path d="M192.17 130.72L191.846 130.68C190.435 130.509 189.427 129.222 189.599 127.813L190.18 123.044C190.214 122.76 190.473 122.552 190.763 122.587L195.165 123.123C195.448 123.157 195.657 123.415 195.621 123.705L195.04 128.474C194.868 129.884 193.581 130.891 192.17 130.72Z" fill="#EBEBEB"/>
<path d="M193.658 115.898L193.982 115.937C195.393 116.109 196.401 117.395 196.23 118.805L195.649 123.574C195.614 123.857 195.356 124.065 195.065 124.03L190.664 123.494C190.38 123.46 190.172 123.202 190.207 122.912L190.788 118.143C190.96 116.733 192.247 115.726 193.658 115.898Z" fill="#E0E0E0"/>
<path d="M204.932 293.114L204.631 293.24C203.319 293.786 201.807 293.165 201.26 291.854L199.41 287.42C199.3 287.156 199.422 286.848 199.692 286.735L203.785 285.031C204.048 284.921 204.357 285.043 204.47 285.312L206.32 289.746C206.867 291.057 206.244 292.568 204.932 293.114Z" fill="#EBEBEB"/>
<path d="M198.87 279.538L199.171 279.412C200.483 278.866 201.995 279.488 202.542 280.799L204.392 285.233C204.502 285.496 204.38 285.805 204.111 285.917L200.018 287.622C199.754 287.732 199.445 287.61 199.333 287.34L197.483 282.906C196.936 281.595 197.558 280.084 198.87 279.538Z" fill="#E0E0E0"/>
<path d="M277.853 308.633C277.853 308.837 215.652 309 138.937 309C62.222 309 0.00683594 308.837 0.00683594 308.633C0.00683594 308.429 62.1948 308.266 138.937 308.266C215.679 308.266 277.853 308.429 277.853 308.633Z" fill="#263238"/>
<path d="M226.037 53.1105L213.265 39.894L210.095 60.7957L192.984 60.2182L203.689 74.2636L192.916 88.3906L210.755 84.8776L213.333 102.81L227.758 91.8969L245.95 101.41L241.965 83.0497L262.599 79.8084L246.549 70.3428L255.907 54.2181L239.87 60.4832L237.918 40.5939L226.037 53.1105Z" fill="white"/>
<path d="M226.037 53.1105C226.037 53.1105 226.302 52.8523 226.819 52.3155C227.349 51.7651 228.118 50.9701 229.125 49.9236C231.165 47.7968 234.15 44.6778 237.993 40.6687L237.816 40.6076C238.333 46.0097 238.979 52.73 239.72 60.4968L239.741 60.6871L239.924 60.6191C244.74 58.7437 250.153 56.6372 255.975 54.3744L255.764 54.1298C252.867 59.1106 249.711 64.5331 246.392 70.241L246.297 70.404L246.46 70.4992C251.568 73.5162 256.934 76.6827 262.504 79.9783L262.578 79.5978C255.995 80.6307 249.072 81.7179 241.944 82.8323L241.72 82.8662L241.767 83.0905C243.032 88.9411 244.372 95.1314 245.746 101.451L246.066 101.206C241.026 98.5697 235.708 95.7837 230.308 92.9637C229.499 92.5357 228.682 92.1144 227.873 91.6931L227.751 91.6251L227.635 91.7135C222.745 95.4168 217.93 99.0589 213.21 102.633L213.557 102.776C212.673 96.6603 211.816 90.6738 210.973 84.8436L210.939 84.6194L210.714 84.6601C204.58 85.8697 198.629 87.0452 192.875 88.1868L193.079 88.513C196.813 83.6137 200.404 78.8911 203.845 74.3792L203.934 74.2637L203.845 74.1481C200.057 69.1877 196.487 64.5127 193.127 60.1095L192.984 60.3881C199.194 60.5919 204.879 60.7754 210.095 60.9453H210.231L210.252 60.8162C211.483 52.5873 212.53 45.5816 213.38 39.9077L213.203 39.962C217.372 44.2429 220.589 47.5318 222.766 49.7673C223.84 50.8682 224.663 51.7039 225.221 52.2679C225.772 52.8251 226.05 53.0969 226.05 53.0969C226.05 53.0969 225.772 52.7912 225.221 52.2136C224.663 51.6292 223.854 50.7798 222.786 49.6586C220.637 47.4162 217.468 44.107 213.353 39.8125L213.203 39.6562L213.169 39.8669C212.299 45.5408 211.218 52.5329 209.953 60.7618L210.109 60.6327C204.893 60.4492 199.214 60.2522 192.998 60.0279L192.631 60.0143L192.855 60.3065C196.208 64.7165 199.772 69.3984 203.546 74.3656V74.1345C200.105 78.6465 196.5 83.3555 192.76 88.2548L192.433 88.6828L192.964 88.5809C198.717 87.4529 204.675 86.2842 210.81 85.0746L210.558 84.898C211.394 90.7282 212.251 96.7146 213.129 102.83L213.183 103.197L213.482 102.973C218.202 99.3987 223.017 95.7565 227.907 92.06L227.669 92.0804C228.478 92.5017 229.288 92.9298 230.104 93.3511C235.504 96.171 240.822 98.957 245.862 101.594L246.277 101.811L246.175 101.349C244.801 95.0295 243.461 88.8391 242.189 82.9886L242.012 83.2468C249.147 82.1188 256.063 81.0316 262.646 79.9919L263.211 79.9036L262.721 79.6114C257.144 76.3294 251.772 73.1696 246.664 70.1594L246.732 70.4176C250.044 64.703 253.186 59.2737 256.07 54.2861L256.315 53.8648L255.859 54.0415C250.044 56.3246 244.638 58.4447 239.829 60.3337L240.026 60.456C239.251 52.6892 238.571 45.9689 238.034 40.5736L238.013 40.3493L237.857 40.5124C234.069 44.5351 231.124 47.6677 229.118 49.8013C228.118 50.8682 227.356 51.6836 226.833 52.2408C226.316 52.7912 226.05 53.0901 226.05 53.0901L226.037 53.1105Z" fill="#263238"/>
<path d="M191.787 75.1607C191.787 77.2672 190.08 78.9727 187.972 78.9727C185.864 78.9727 184.156 77.2672 184.156 75.1607C184.156 73.0542 185.864 71.3486 187.972 71.3486C190.08 71.3486 191.787 73.0542 191.787 75.1607Z" fill="white"/>
<path d="M191.787 75.1605C191.787 75.1605 191.774 74.8208 191.617 74.2432C191.461 73.6792 191.08 72.8502 190.223 72.2114C189.801 71.8989 189.271 71.6339 188.659 71.5319C188.054 71.43 187.367 71.4504 186.721 71.7018C186.074 71.9396 185.456 72.3813 185.013 72.9861C184.565 73.5909 184.306 74.3587 184.299 75.1605C184.306 75.9555 184.558 76.7302 185.013 77.3349C185.456 77.9465 186.074 78.3882 186.721 78.6192C187.367 78.8706 188.054 78.891 188.659 78.7891C189.271 78.6872 189.801 78.4222 190.223 78.1096C191.08 77.4708 191.461 76.6419 191.617 76.0779C191.774 75.5003 191.76 75.1605 191.787 75.1605C191.794 75.1605 191.801 75.2421 191.801 75.4051C191.801 75.5682 191.787 75.8061 191.719 76.105C191.597 76.6962 191.223 77.5728 190.339 78.2659C189.903 78.6056 189.346 78.891 188.7 79.0133C188.06 79.1289 187.333 79.1153 186.632 78.8571C185.938 78.6124 185.272 78.1436 184.796 77.4912C184.306 76.8457 184.034 76.0167 184.027 75.1605C184.034 74.3043 184.313 73.4753 184.796 72.8298C185.272 72.1775 185.938 71.7086 186.632 71.464C187.326 71.2058 188.054 71.1922 188.7 71.3077C189.346 71.43 189.903 71.7154 190.339 72.0552C191.223 72.7483 191.59 73.6248 191.719 74.216C191.787 74.515 191.808 74.7528 191.801 74.9159C191.801 75.079 191.801 75.1605 191.787 75.1605Z" fill="#263238"/>
<path d="M218.188 68.447H221.086C221.086 68.447 221.086 66.0144 223.616 65.9736C224.928 65.9532 225.608 66.8094 225.887 67.4685C226.207 68.2296 226.112 69.1061 225.683 69.8128C225.193 70.6214 224.112 71.3553 222.16 71.0156V77.5389H225.023V73.72C225.023 73.72 229.043 72.6804 229.043 68.2568C229.043 63.8332 225.248 63.0449 223.622 63.0449C222.378 63.0449 218.141 63.3439 218.202 68.447H218.188Z" fill="#263238"/>
<path d="M225.051 78.8843H222.147V81.5955H225.051V78.8843Z" fill="#263238"/>
<path d="M182.769 9.49954L173.744 0.163086L171.5 14.9288L159.408 14.5211L166.977 24.4487L159.36 34.4307L171.969 31.9505L173.792 44.6234L183.986 36.9109L196.84 43.6313L194.025 30.6595L208.613 28.3627L197.269 21.6763L203.879 10.281L192.542 14.7114L191.168 0.652333L182.769 9.49954Z" fill="white"/>
<path d="M182.769 9.4997C182.769 9.4997 182.96 9.31623 183.32 8.93571C183.694 8.54839 184.238 7.9844 184.945 7.24373C186.387 5.74202 188.496 3.53361 191.216 0.700058L191.093 0.659287C191.461 4.47813 191.916 9.2279 192.44 14.7183L192.454 14.8542L192.583 14.8067C195.983 13.4816 199.812 11.9935 203.927 10.3967L203.777 10.2268C201.73 13.7466 199.499 17.5791 197.153 21.6153L197.085 21.7309L197.201 21.7988C200.812 23.9325 204.6 26.1681 208.538 28.4988L208.586 28.2338C203.934 28.9608 199.044 29.7287 193.998 30.5169L193.841 30.5441L193.875 30.7004C194.773 34.8386 195.718 39.2146 196.684 43.679L196.908 43.5091C193.351 41.6473 189.59 39.6767 185.775 37.6857C185.204 37.3868 184.626 37.0878 184.055 36.7888L183.966 36.7412L183.884 36.8024C180.43 39.4185 177.029 41.9938 173.69 44.5216L173.935 44.6235C173.309 40.3018 172.704 36.0685 172.105 31.9507L172.085 31.7944L171.928 31.8284C167.596 32.6846 163.386 33.5136 159.319 34.3154L159.462 34.5464C162.101 31.0809 164.638 27.7513 167.066 24.5576L167.127 24.4761L167.066 24.3945C164.393 20.8883 161.863 17.5859 159.489 14.4737L159.387 14.6708C163.774 14.8135 167.793 14.9426 171.48 15.0649H171.575L171.588 14.9765C172.459 9.15995 173.2 4.21312 173.799 0.204016L173.669 0.244787C176.614 3.2686 178.886 5.59932 180.43 7.17578C181.191 7.95042 181.769 8.54159 182.164 8.9425C182.551 9.33662 182.749 9.52688 182.749 9.52688C182.749 9.52688 182.551 9.30944 182.164 8.90173C181.769 8.48723 181.198 7.88926 180.443 7.09424C178.927 5.51098 176.682 3.17347 173.778 0.136065L173.676 0.0273438L173.656 0.176836C173.037 4.18594 172.275 9.13277 171.384 14.9426L171.493 14.8542C167.807 14.7251 163.794 14.5824 159.401 14.4261H159.143L159.299 14.6232C161.666 17.7421 164.189 21.0514 166.855 24.5576V24.3945C164.42 27.5814 161.877 30.911 159.231 34.3697L159 34.6755L159.374 34.6008C163.441 33.7989 167.651 32.9767 171.983 32.1206L171.806 31.9915C172.398 36.1161 173.003 40.3426 173.622 44.6643L173.656 44.9225L173.867 44.7662C177.199 42.2452 180.606 39.6699 184.061 37.0538L183.891 37.0674C184.463 37.3664 185.034 37.6654 185.612 37.9643C189.427 39.9621 193.188 41.9259 196.745 43.7877L197.038 43.944L196.97 43.6179C195.997 39.1535 195.052 34.7774 194.154 30.646L194.031 30.8295C199.071 30.0345 203.961 29.2598 208.613 28.526L209.014 28.4648L208.667 28.2609C204.729 25.9438 200.928 23.7082 197.316 21.5814L197.364 21.7648C199.704 17.7218 201.927 13.8893 203.961 10.3627L204.131 10.0637L203.811 10.1928C199.704 11.8032 195.881 13.305 192.481 14.6368L192.624 14.7251C192.073 9.23469 191.597 4.48492 191.216 0.672877L191.202 0.51659L191.093 0.632107C188.421 3.47925 186.333 5.68765 184.918 7.19617C184.211 7.95042 183.674 8.528 183.306 8.92212C182.939 9.31623 182.756 9.52688 182.756 9.52688L182.769 9.4997Z" fill="#263238"/>
<path d="M166.603 44.9091C166.603 46.3972 165.399 47.6 163.91 47.6C162.421 47.6 161.217 46.3972 161.217 44.9091C161.217 43.421 162.421 42.2183 163.91 42.2183C165.399 42.2183 166.603 43.421 166.603 44.9091Z" fill="white"/>
<path d="M166.603 44.909C166.603 44.909 166.59 44.6712 166.481 44.2635C166.372 43.8626 166.1 43.2782 165.495 42.823C165.195 42.6055 164.821 42.4153 164.386 42.3405C163.958 42.2726 163.475 42.2861 163.019 42.4628C162.563 42.6259 162.121 42.9385 161.815 43.3734C161.496 43.8015 161.319 44.3451 161.312 44.909C161.312 45.473 161.496 46.0166 161.815 46.4447C162.128 46.8796 162.563 47.1922 163.019 47.3553C163.475 47.532 163.958 47.5455 164.386 47.4776C164.814 47.4029 165.195 47.2194 165.495 46.9951C166.1 46.5467 166.372 45.9555 166.481 45.5546C166.59 45.1469 166.583 44.9023 166.603 44.909C166.603 44.909 166.61 44.9702 166.617 45.0789C166.617 45.1944 166.603 45.3643 166.556 45.575C166.467 45.9895 166.202 46.6146 165.583 47.1039C165.277 47.3417 164.882 47.5455 164.42 47.6339C163.964 47.7154 163.454 47.7086 162.958 47.5252C162.468 47.3553 161.992 47.0223 161.659 46.5603C161.312 46.105 161.122 45.5206 161.115 44.9158C161.115 44.3111 161.312 43.7267 161.659 43.2714C161.992 42.8094 162.468 42.4764 162.958 42.3065C163.447 42.1231 163.964 42.1163 164.42 42.1978C164.876 42.2861 165.27 42.49 165.583 42.7278C166.209 43.2171 166.467 43.8354 166.556 44.2567C166.603 44.4674 166.617 44.6372 166.617 44.7528C166.617 44.8683 166.617 44.9226 166.603 44.9226V44.909Z" fill="#263238"/>
<path d="M178.369 19.7602H180.382C180.382 19.7602 180.382 18.0682 182.137 18.041C183.048 18.0274 183.524 18.6254 183.714 19.0807C183.939 19.6107 183.871 20.2154 183.572 20.7115C183.232 21.2755 182.483 21.7851 181.123 21.5473V26.0864H183.116V23.4295C183.116 23.4295 185.911 22.7092 185.911 19.6311C185.911 16.5529 183.272 16.0093 182.143 16.0093C181.28 16.0093 178.335 16.2199 178.376 19.767L178.369 19.7602Z" fill="#263238"/>
<path d="M183.143 27.0176H181.123V28.8998H183.143V27.0176Z" fill="#263238"/>
<path d="M106.7 49.1831C107.639 46.0981 110.733 43.8082 113.957 43.8014C117.085 40.2204 122.825 39.2691 126.94 41.6473C129.402 39.5001 133.013 38.7594 136.121 39.7651C139.229 40.7708 141.725 43.4888 142.453 46.6689C145.575 45.5613 149.342 46.6621 151.376 49.2714C153.409 51.8807 153.552 55.8015 151.716 58.5535C155.422 59.0428 158.463 62.6034 158.354 66.3407C158.245 70.078 154.994 73.4552 151.267 73.7202L109.734 57.6973C107.054 55.8966 105.769 52.2749 106.707 49.1899L106.7 49.1831Z" fill="#263238"/>
<path d="M152.552 74.5627C148.152 58.2816 131.973 48.1162 115.378 51.1943L113.732 51.5001C96.1451 55.8354 90.0038 73.1765 94.8257 90.6263L108.387 149.302L112.209 156.287L140.984 169.375L149.988 155.723L148.771 137.689C148.771 137.689 165.372 131.866 162.407 114.749C160.979 106.486 156.646 89.7021 152.552 74.5627Z" fill="#FFBF9D"/>
<path d="M148.907 137.635C148.907 137.635 138.114 140.312 125.301 135.236C125.301 135.236 132.299 146.7 149.064 141.997L148.907 137.635Z" fill="#FF9A6C"/>
<path d="M150.539 91.2924C150.825 92.5699 149.975 93.8678 148.642 94.1871C147.316 94.5065 146.003 93.7319 145.717 92.4544C145.432 91.1769 146.282 89.879 147.608 89.5597C148.941 89.2403 150.254 90.0149 150.532 91.2924H150.539Z" fill="#263238"/>
<path d="M150.784 84.4294C150.539 84.8031 148.438 83.7771 145.813 84.2731C143.181 84.7284 141.508 86.4339 141.161 86.1689C140.991 86.0534 141.195 85.4215 141.923 84.6536C142.637 83.8926 143.936 83.0432 145.575 82.7442C147.214 82.452 148.703 82.7986 149.608 83.2674C150.533 83.7363 150.913 84.2595 150.784 84.4294Z" fill="#263238"/>
<path d="M128.239 96.5922C128.525 97.8697 127.674 99.1676 126.341 99.4869C125.015 99.8063 123.703 99.0317 123.417 97.7542C123.131 96.4767 123.982 95.1788 125.308 94.8595C126.641 94.5401 127.947 95.3147 128.232 96.5922H128.239Z" fill="#263238"/>
<path d="M125.593 88.7238C125.349 89.0976 123.247 88.0715 120.622 88.5675C117.997 89.0228 116.317 90.7284 115.97 90.4634C115.807 90.3479 116.004 89.7159 116.732 88.9481C117.446 88.187 118.745 87.3376 120.384 87.0386C122.023 86.7464 123.512 87.093 124.417 87.5619C125.335 88.0307 125.716 88.554 125.6 88.7238H125.593Z" fill="#263238"/>
<path d="M137.856 106.568C137.815 106.418 139.393 105.834 141.977 105.005C142.637 104.815 143.242 104.563 143.276 104.081C143.344 103.564 142.929 102.899 142.46 102.178C141.528 100.677 140.556 99.1001 139.529 97.4421C135.428 90.6877 132.326 85.0886 132.598 84.9255C132.87 84.7624 136.421 90.1034 140.522 96.8577C141.514 98.5225 142.467 100.119 143.371 101.635C143.766 102.348 144.364 103.13 144.208 104.196C144.119 104.733 143.698 105.188 143.29 105.379C142.881 105.589 142.507 105.664 142.181 105.746C139.542 106.384 137.896 106.697 137.862 106.554L137.856 106.568Z" fill="#263238"/>
<path d="M139.998 75.1949C140.583 74.692 142.256 75.6773 144.418 76.153C146.561 76.6966 148.506 76.5675 148.798 77.2742C148.921 77.6139 148.513 78.1507 147.595 78.5517C146.69 78.9526 145.275 79.136 143.793 78.7895C142.31 78.4361 141.134 77.6343 140.501 76.8733C139.862 76.1054 139.733 75.4463 139.998 75.1949Z" fill="#263238"/>
<path d="M149.451 67.0408C149.451 67.0408 142.956 57.1811 137.332 55.6454C130.524 53.7835 129.11 61.1358 122.846 60.5718C116.582 60.0146 110.08 58.2207 104.851 63.949C99.1241 70.2141 102.899 73.1699 103.898 80.8212C107.938 111.848 103.932 121.571 99.6478 107.404C99.1785 105.854 94.5402 105.406 92.6428 98.8282C90.1808 90.3004 87.8889 79.8223 88.6846 73.299C89.3579 67.8018 91.6498 63.6636 96.2337 58.7236C103.463 50.9228 114.964 48.6532 122.941 47.9873C130.912 47.3214 147.676 53.5253 149.451 67.0476V67.0408Z" fill="#263238"/>
<path d="M100.654 106.731C100.056 104.115 97.3966 102.457 94.8191 103.191C91.6906 104.088 88.4806 106.547 89.9088 113.091C92.4523 124.697 103.586 119.75 103.531 119.417C103.497 119.186 101.763 111.576 100.654 106.731Z" fill="#FFBF9D"/>
<path d="M100.049 115.605C99.9879 115.578 99.8791 115.789 99.573 116.02C99.2738 116.244 98.7229 116.475 98.07 116.38C96.7438 116.196 95.2884 114.477 94.7716 112.398C94.5131 111.351 94.5131 110.291 94.7036 109.381C94.8736 108.457 95.2884 107.743 95.8869 107.499C96.4718 107.22 96.9887 107.499 97.1995 107.791C97.4239 108.083 97.4035 108.327 97.4715 108.334C97.5124 108.355 97.6756 108.083 97.4783 107.628C97.3831 107.41 97.1859 107.166 96.8595 107.002C96.533 106.839 96.0977 106.812 95.6761 106.955C94.792 107.213 94.1663 108.212 93.9554 109.218C93.697 110.237 93.6698 111.426 93.9623 112.608C94.5471 114.932 96.227 116.855 98.0088 116.978C98.8725 117.012 99.4982 116.618 99.7907 116.264C100.09 115.897 100.09 115.625 100.049 115.612V115.605Z" fill="#FF9A6C"/>
<path d="M96.6825 84.0757C98.3896 84.83 100.192 85.5978 102.055 85.4415C103.919 85.2852 105.816 83.8447 105.782 81.9828C105.769 81.147 105.395 80.2365 105.816 79.5094C106.313 78.6396 107.537 78.66 108.537 78.5785C111.998 78.3067 115.032 75.2625 115.283 71.8038C116.392 72.9386 118.405 72.5105 119.554 71.4233C120.71 70.336 121.295 68.8003 122.105 67.4345C122.914 66.0687 124.158 64.7505 125.743 64.6893C126.627 64.6485 127.532 65.0155 128.389 64.7777C129.898 64.3564 130.313 62.4198 130.266 60.8569C130.218 59.294 130.068 57.4865 131.211 56.4129C132.272 55.4208 133.918 55.5771 135.366 55.5227C136.815 55.4684 138.576 54.8025 138.685 53.3551C138.74 52.5941 138.291 51.8942 137.767 51.337C135.414 48.816 131.211 48.2792 128.3 50.1342C126.444 46.4921 122.275 44.1545 118.187 44.4739C114.107 44.7933 110.352 47.7492 109.087 51.6359C106.204 49.8556 102.443 49.5838 99.3281 50.9225C96.2133 52.2679 93.8329 55.1898 93.1528 58.5126C90.174 58.2951 87.134 59.9939 85.767 62.644C84.4 65.3009 84.774 68.7528 86.6851 71.0495C84.8081 72.6396 83.3935 75.0586 83.8015 77.4777C84.2096 79.9035 87.0116 81.8741 89.2219 80.8073C88.6302 82.8662 89.868 85.2717 91.8879 85.9851C93.9077 86.6986 96.3901 85.5978 97.2198 83.6272" fill="#263238"/>
<path d="M88.365 80.9367C88.3173 80.9163 88.331 81.956 89.5075 83.0432C90.0856 83.5528 90.9969 84.0285 92.1055 84.0013C93.1936 83.9809 94.4314 83.4849 95.2543 82.4181L94.7443 82.4384C95.506 83.3354 96.4649 84.2188 97.6143 84.9187C98.3556 85.3603 99.1513 85.7069 99.9878 85.8428C100.811 86.0059 101.688 85.87 102.382 85.6253C103.83 85.1905 104.98 84.1508 105.395 83.0704C105.843 82.0036 105.871 81.0794 105.891 80.4679C105.898 79.8495 105.85 79.5098 105.809 79.5098C105.755 79.5098 105.714 79.8495 105.626 80.4475C105.531 81.0455 105.415 81.9288 104.959 82.8665C104.164 84.7488 100.716 86.2709 97.9679 84.3343C96.8934 83.6887 95.9752 82.8529 95.2407 82.0172L94.9687 81.7114L94.7307 82.0375C94.071 82.9345 93.01 83.4034 92.0783 83.4577C91.133 83.5189 90.3168 83.1587 89.7592 82.7374C88.6234 81.8473 88.4534 80.896 88.3582 80.9435L88.365 80.9367Z" fill="#455A64"/>
<path d="M105.49 50.1819C105.49 50.2227 105.809 50.2091 106.374 50.3314C106.925 50.4605 107.761 50.7595 108.475 51.5341L108.659 51.7312L108.781 51.4866C109.604 49.8218 111.08 47.5998 113.583 45.867C114.827 45.0176 116.324 44.311 117.997 44.0052C119.656 43.6858 121.492 43.8421 123.206 44.5012C124.539 45.0108 125.729 45.7923 126.668 46.7436C127.593 47.7085 128.266 48.8501 128.606 50.0256L128.715 50.3858L129.048 50.2227C130.715 49.4141 132.564 49.4277 134.013 49.9101C135.482 50.3926 136.536 51.3507 137.196 52.2612C138.522 54.1367 138.447 55.6248 138.57 55.584C138.597 55.584 138.631 55.2375 138.536 54.6055C138.434 53.9804 138.175 53.0494 137.515 52.0438C136.863 51.0585 135.768 49.9781 134.19 49.4141C132.639 48.8433 130.633 48.7889 128.776 49.6587L129.218 49.8558C128.865 48.5715 128.151 47.3212 127.151 46.2747C126.144 45.2419 124.872 44.3993 123.451 43.8557C121.622 43.1558 119.649 42.9927 117.874 43.3528C116.099 43.6926 114.528 44.4604 113.243 45.371C110.658 47.226 109.203 49.5772 108.448 51.3235L108.747 51.2759C107.918 50.4605 107 50.2091 106.415 50.1343C105.809 50.0664 105.497 50.1547 105.497 50.1751L105.49 50.1819Z" fill="#455A64"/>
<path d="M181.069 110.223L180.974 109.496C180.81 108.219 179.634 107.315 178.355 107.478L160.856 109.734C158.843 109.992 156.687 110.685 156.687 110.685L146.874 113.614L142.643 114.327L143.684 115.306L147.044 114.871L157.279 115.218C157.279 115.218 159.537 115.347 161.55 115.082L179.049 112.826C180.327 112.663 181.232 111.487 181.069 110.21V110.223Z" fill="#455A64"/>
<path d="M177.981 112.445C177.981 112.445 178.131 112.411 178.389 112.309C178.648 112.207 179.022 112.004 179.335 111.582C179.648 111.168 179.845 110.509 179.654 109.782C179.505 109.075 178.852 108.341 177.934 108.246C177.492 108.192 176.982 108.327 176.465 108.382C175.941 108.45 175.397 108.525 174.839 108.599C173.71 108.749 172.513 108.912 171.248 109.082C168.712 109.415 165.937 109.775 163.019 110.155C162.353 110.244 161.754 110.692 161.496 111.297C161.231 111.888 161.305 112.622 161.605 113.172C161.924 113.723 162.516 114.09 163.128 114.131C163.427 114.158 163.747 114.09 164.08 114.056C164.407 114.015 164.726 113.974 165.039 113.933C167.562 113.621 169.834 113.342 171.765 113.104C173.649 112.887 175.186 112.71 176.301 112.581C176.805 112.534 177.22 112.486 177.539 112.459C177.825 112.432 177.975 112.425 177.975 112.439C177.975 112.452 177.832 112.479 177.553 112.534C177.233 112.581 176.825 112.649 176.322 112.724C175.207 112.88 173.676 113.098 171.799 113.363C169.875 113.621 167.603 113.927 165.08 114.266C164.767 114.307 164.441 114.348 164.121 114.396C163.801 114.429 163.475 114.504 163.101 114.484C162.38 114.429 161.679 114.008 161.299 113.356C161.108 113.037 161.006 112.642 160.979 112.282C160.945 111.902 160.999 111.508 161.163 111.154C161.462 110.434 162.176 109.897 162.972 109.795C165.889 109.422 168.671 109.075 171.201 108.749C172.466 108.593 173.67 108.443 174.792 108.3C175.356 108.232 175.9 108.164 176.424 108.103C176.948 108.062 177.437 107.927 177.961 107.988C179.001 108.117 179.709 108.953 179.852 109.734C180.035 110.516 179.797 111.236 179.444 111.664C179.09 112.099 178.682 112.289 178.41 112.371C178.131 112.445 177.975 112.432 177.975 112.432L177.981 112.445Z" fill="#263238"/>
<path d="M172.252 109.607L163.854 110.688C163.139 110.78 162.634 111.434 162.726 112.148L162.746 112.303C162.838 113.018 163.493 113.523 164.208 113.431L172.606 112.35C173.321 112.258 173.826 111.604 173.734 110.889L173.714 110.734C173.622 110.02 172.967 109.515 172.252 109.607Z" fill="white"/>
<path d="M178.26 110.196C178.199 110.23 178.165 109.632 177.498 109.265C177.179 109.095 176.703 109.041 176.288 109.265C175.873 109.483 175.56 109.992 175.635 110.529C175.703 111.066 176.131 111.487 176.587 111.589C177.049 111.705 177.498 111.535 177.764 111.29C178.314 110.76 178.199 110.176 178.267 110.196C178.287 110.196 178.342 110.312 178.335 110.556C178.335 110.787 178.246 111.154 177.94 111.48C177.648 111.806 177.104 112.051 176.512 111.929C175.927 111.82 175.356 111.29 175.268 110.59C175.172 109.89 175.587 109.231 176.131 108.98C176.675 108.708 177.267 108.81 177.627 109.048C178.002 109.285 178.178 109.618 178.24 109.843C178.301 110.074 178.28 110.203 178.26 110.203V110.196Z" fill="#263238"/>
<path d="M144.895 117.515C144.779 117.555 144.568 116.726 143.67 115.809C143.228 115.354 142.616 114.892 141.855 114.545C141.1 114.199 140.181 114.001 139.209 113.967C137.243 113.9 135.496 114.464 134.251 114.885C133.006 115.326 132.224 115.619 132.177 115.517C132.136 115.428 132.83 114.98 134.054 114.402C135.264 113.852 137.094 113.159 139.236 113.234C140.297 113.274 141.31 113.505 142.147 113.933C142.983 114.355 143.623 114.912 144.058 115.462C144.942 116.577 144.969 117.508 144.895 117.508V117.515Z" fill="#263238"/>
<path d="M51.1432 147.019L74.6133 147.277L81.183 145.245L88.5008 146.951L98.8791 146.489L107.748 145.259C107.748 145.259 117.867 161.621 131.442 160.724C145.017 159.827 150.58 143.458 150.58 143.458L183.98 152.258L187.04 199.742L183.782 258.057L190.542 308.3L78.6054 308.327L77.6669 252.207L72.1241 200.231L44.4782 194.51L38.8674 191.289L51.1364 147.019H51.1432Z" fill="#4596F3"/>
<path d="M154.926 145.313C154.926 145.313 154.912 145.558 154.817 145.999C154.763 146.23 154.702 146.502 154.627 146.822C154.552 147.148 154.463 147.522 154.307 147.929C153.811 149.594 152.804 151.932 151.063 154.52C150.655 155.186 150.111 155.798 149.601 156.484C149.07 157.15 148.451 157.782 147.826 158.462C147.146 159.08 146.5 159.78 145.717 160.364C145.337 160.67 144.956 160.989 144.555 161.295C144.14 161.581 143.718 161.873 143.296 162.165C141.562 163.273 139.651 164.353 137.516 165.087C135.394 165.848 133.108 166.385 130.721 166.589C128.327 166.752 125.988 166.568 123.778 166.133C121.554 165.726 119.507 164.951 117.623 164.122C117.16 163.898 116.698 163.673 116.249 163.449C115.807 163.211 115.385 162.953 114.957 162.709C114.093 162.246 113.345 161.649 112.583 161.146C111.869 160.575 111.155 160.038 110.529 159.461C109.917 158.863 109.292 158.339 108.788 157.741C106.673 155.451 105.327 153.284 104.585 151.721C104.374 151.34 104.225 150.987 104.102 150.674C103.98 150.369 103.878 150.11 103.79 149.886C103.626 149.458 103.552 149.234 103.579 149.227C103.599 149.22 103.722 149.424 103.926 149.832C104.028 150.043 104.157 150.294 104.3 150.586C104.442 150.885 104.606 151.232 104.837 151.592C105.646 153.1 107.04 155.186 109.162 157.388C109.666 157.966 110.298 158.468 110.903 159.039C111.529 159.59 112.23 160.106 112.937 160.656C113.692 161.139 114.433 161.71 115.283 162.158C115.698 162.389 116.12 162.641 116.555 162.872C116.997 163.082 117.453 163.293 117.908 163.51C119.758 164.305 121.758 165.053 123.92 165.433C126.076 165.841 128.355 166.018 130.674 165.861C132.993 165.664 135.217 165.148 137.284 164.421C139.365 163.714 141.229 162.675 142.936 161.608C143.351 161.322 143.766 161.044 144.174 160.772C144.568 160.48 144.942 160.167 145.323 159.875C146.098 159.304 146.738 158.632 147.411 158.04C148.03 157.388 148.649 156.776 149.179 156.131C149.689 155.472 150.24 154.881 150.648 154.235C152.41 151.734 153.471 149.465 154.049 147.848C154.219 147.454 154.334 147.087 154.423 146.767C154.518 146.462 154.606 146.196 154.674 145.965C154.817 145.537 154.906 145.306 154.926 145.313Z" fill="#263238"/>
<path d="M181.735 151.673C181.735 151.673 194.474 155.363 198.949 162.77C207.953 177.678 228.737 214.297 229.301 214.582C230.015 214.936 196.378 230.761 196.378 230.761L181.735 211.205V151.673Z" fill="#4596F3"/>
<path d="M186.748 177.42C186.952 177.42 186.646 193.728 186.067 213.828C185.489 233.935 184.857 250.223 184.66 250.216C184.456 250.216 184.762 233.914 185.34 213.808C185.918 193.708 186.544 177.413 186.748 177.42Z" fill="#263238"/>
<g opacity="0.3">
<path d="M105.143 224.395C104.32 230.762 107.89 237.461 113.63 240.349C114.902 240.988 116.283 241.464 117.351 242.408C118.663 243.563 119.33 245.255 120.173 246.778C123.342 252.533 129.66 256.413 136.23 256.651C141.528 256.841 146.649 254.837 151.92 254.239C162.89 253.002 174.56 258.764 184.524 263.514L183.789 258.057L184.027 252.778L151.974 236.232L124.723 229.484L105.15 224.395H105.143Z" fill="black"/>
</g>
<g opacity="0.3">
<path d="M169.841 199.137C163.094 194.238 154.45 196.969 146.819 196.066C146.765 196.059 146.52 196.025 146.466 196.018C146.275 195.984 146.085 195.95 145.894 195.909C145.5 195.828 145.105 195.726 144.718 195.597C144.548 195.542 144.378 195.474 144.208 195.413C144.208 195.413 144.208 195.413 144.194 195.413C144.194 195.413 144.187 195.413 144.181 195.406C144.099 195.366 144.017 195.332 143.943 195.291C143.602 195.121 143.283 194.931 142.97 194.713C142.963 194.713 142.956 194.7 142.95 194.693C142.916 194.666 142.882 194.639 142.827 194.598C142.644 194.442 142.46 194.292 142.283 194.136C141.957 193.844 141.637 193.538 141.345 193.218C140.841 192.668 140.399 192.063 140.08 191.384C139.644 190.439 139.583 189.488 139.821 188.591C140.086 187.592 140.685 186.654 141.385 185.859C142.276 184.854 143.351 184.093 144.337 183.189C146.724 181.001 148.2 177.977 148.567 174.77C148.676 173.846 148.662 172.915 148.567 171.991C151.886 170.937 154.681 168.505 156.123 165.223L161.013 146.196L159.551 145.809L152.417 163.626C151.124 166.541 148.227 168.464 145.031 168.518C142.909 168.539 140.875 167.784 139.311 166.351L132.68 160.684L128.021 161.431L136.577 169.313C138.855 171.406 141.793 172.548 144.881 172.548C144.956 172.548 145.031 172.548 145.105 172.548C145.439 172.548 145.765 172.521 146.092 172.487C146.275 174.824 145.69 177.189 144.432 179.187C143.643 180.43 142.603 181.375 141.474 182.299C140.46 183.128 139.549 184.059 138.774 185.112C137.305 187.116 136.706 189.685 137.665 192.043C138.611 194.374 140.698 196.582 143.018 197.608C146.275 199.055 150.07 198.79 153.545 198.668C157.504 198.532 161.333 198.356 164.978 199.49C166.658 200.014 168.29 200.91 169.582 202.127C171.194 203.656 172.33 205.613 173.105 207.794C174.282 211.096 174.492 214.569 173.636 217.98C172.881 220.976 171.466 223.796 169.637 226.283C163.182 235.049 151.294 238.447 141.059 235.09C138.366 234.206 135.768 232.977 133.156 231.889C130.001 230.578 126.852 229.266 123.696 227.948C123.499 227.867 123.295 227.778 123.098 227.697C122.465 227.432 121.71 227.982 121.547 228.58C121.35 229.307 121.799 229.864 122.431 230.129C127.736 232.338 133.034 234.553 138.339 236.755C148.547 240.995 160.734 238.8 168.718 231.128C173.316 226.711 176.608 220.392 176.703 213.943C176.778 208.433 174.438 202.433 169.881 199.123L169.841 199.137Z" fill="black"/>
</g>
<path d="M68.7102 167.859C68.9143 167.839 70.3697 180.05 71.9679 195.135C73.5661 210.22 74.7019 222.465 74.4978 222.485C74.3006 222.506 72.8384 210.295 71.2402 195.21C69.642 180.125 68.5062 167.88 68.7102 167.859Z" fill="#263238"/>
<path d="M77.7691 171.4C77.6671 171.4 77.5582 170.136 77.429 168.09C77.293 165.97 77.1162 163.191 76.9189 160.113C76.6877 157.042 76.4837 154.256 76.3205 152.142C76.164 150.104 76.096 148.833 76.198 148.819C76.2933 148.806 76.5449 150.056 76.8305 152.088C77.1162 154.12 77.429 156.94 77.6399 160.065C77.8575 163.191 77.9391 166.025 77.9323 168.077C77.9323 170.129 77.8507 171.4 77.7555 171.4H77.7691Z" fill="#263238"/>
<path d="M168.099 265.566C168.099 265.566 167.909 265.729 167.515 265.98C167.12 266.232 166.528 266.585 165.76 267.04C164.998 267.496 164.053 268.046 162.937 268.637C161.822 269.235 160.564 269.942 159.136 270.635C157.714 271.355 156.15 272.13 154.443 272.898C152.75 273.706 150.907 274.474 148.968 275.303C145.071 276.9 140.726 278.511 136.087 279.972C131.442 281.405 126.947 282.547 122.832 283.451C120.765 283.872 118.806 284.286 116.956 284.585C115.113 284.925 113.386 285.17 111.808 285.387C110.23 285.625 108.795 285.761 107.544 285.904C106.285 286.053 105.204 286.135 104.313 286.196C103.422 286.257 102.735 286.298 102.266 286.318C101.797 286.338 101.552 286.338 101.552 286.318C101.552 286.291 101.79 286.243 102.259 286.175C102.729 286.107 103.409 286.019 104.293 285.91C105.177 285.809 106.251 285.686 107.503 285.496C108.754 285.319 110.176 285.149 111.74 284.878C113.311 284.626 115.025 284.354 116.854 283.994C118.69 283.675 120.635 283.233 122.689 282.798C126.777 281.861 131.245 280.705 135.876 279.278C140.494 277.824 144.826 276.241 148.723 274.685C150.662 273.876 152.512 273.136 154.205 272.354C155.919 271.614 157.483 270.866 158.918 270.18C160.36 269.514 161.632 268.841 162.761 268.284C163.89 267.727 164.855 267.217 165.637 266.803C166.426 266.388 167.038 266.069 167.46 265.865C167.882 265.654 168.106 265.559 168.12 265.58L168.099 265.566Z" fill="#263238"/>
<g opacity="0.3">
<path d="M69.0229 165.644C66.8058 171.413 65.0171 177.461 65.0239 183.644C65.0307 189.828 67.4179 195.916 71.8317 200.251C70.4511 188.829 69.4106 177.148 69.0297 165.651L69.0229 165.644Z" fill="black"/>
</g>
<g opacity="0.3">
<path d="M185.394 218.999C191.093 207.087 191.372 192.709 186.142 180.58L185.394 218.999Z" fill="black"/>
</g>
<g opacity="0.3">
<path d="M160.639 280.291C158.884 279.802 157.014 280.23 155.252 280.699C139.828 284.81 125.145 292.135 109.258 293.704C112.352 297.068 142.433 291.034 158.633 287.616C160.693 287.181 163.135 286.359 163.563 284.3C163.937 282.52 162.393 280.78 160.639 280.291Z" fill="black"/>
</g>
<path d="M84.3796 84.9253L15.9619 130.228C15.9619 130.228 -3.31201 144.43 9.71183 164.55C18.2606 177.746 40.4794 185.472 40.4794 185.472L50.7556 148.391L45.1244 148.201L92.1735 103.986L84.3728 84.9253H84.3796Z" fill="#FFBF9D"/>
<path d="M74.8242 91.2514L83.7403 85.3465C83.7403 85.3465 83.4342 73.0474 83.8151 72.4223C84.1891 71.7971 97.689 58.8253 97.689 58.8253C97.689 58.8253 99.7293 61.5501 98.2535 64.3429L114.249 57.1333L130.844 61.4482L130.993 62.9023L135.448 64.7914C135.448 64.7914 138.461 66.9794 135.836 68.5626C135.836 68.5626 137.638 70.5808 137.447 72.2116C137.257 73.8424 135.21 73.9104 135.21 73.9104C135.21 73.9104 136.509 75.0995 134.407 77.5118C132.306 79.924 117.323 85.5708 117.323 85.5708C117.323 85.5708 112.706 92.0601 106.279 96.6739C99.8518 101.295 92.2007 103.985 92.2007 103.985L89.9836 105.807" fill="#FFBF9D"/>
<path d="M90.1875 106.078L89.7386 105.535L92.0646 103.652C92.1394 103.625 99.7429 100.921 106.054 96.3884C112.359 91.8561 116.976 85.4279 117.017 85.3667L117.079 85.2784L117.181 85.2376C117.33 85.1833 132.109 79.5977 134.122 77.2806C135.951 75.1809 134.992 74.2024 134.951 74.1616L134.367 73.5908L135.183 73.5569C135.257 73.5569 136.931 73.4821 137.087 72.1707C137.257 70.7165 135.577 68.8139 135.557 68.7935L135.278 68.4809L135.638 68.2635C136.223 67.9101 136.522 67.5092 136.543 67.0744C136.577 66.2657 135.652 65.396 135.257 65.097L130.653 63.14L130.51 61.7266L114.277 57.5001L97.4577 65.0834L97.9338 64.1796C99.0016 62.1615 98.0698 60.1502 97.6142 59.3755C92.2686 64.5194 84.4679 72.0755 84.1007 72.6124C83.8762 73.2307 83.9714 80.7529 84.0803 85.3464V85.5434L75.0078 91.5503L74.6201 90.9659L83.3729 85.1697C83.2777 81.344 83.1213 72.8842 83.5022 72.2522C83.883 71.6203 95.1726 60.7549 97.4373 58.5873L97.723 58.3155L97.961 58.6348C98.0426 58.7436 99.7361 61.0539 98.9131 63.6768L114.215 56.7798L131.163 61.1898L131.313 62.6779L135.645 64.5262C135.713 64.5738 137.305 65.7493 137.25 67.1219C137.223 67.7063 136.924 68.2227 136.346 68.6576C136.863 69.3099 137.957 70.8864 137.794 72.2726C137.651 73.4889 136.618 74.0257 135.795 74.2024C136.067 74.8343 136.169 76.0303 134.666 77.763C132.598 80.1413 118.956 85.3464 117.541 85.8832C116.963 86.6782 112.474 92.6715 106.476 96.9863C100.382 101.369 93.0983 104.053 92.3706 104.318L90.2011 106.099L90.1875 106.078Z" fill="#FF9A6C"/>
<path d="M99.0153 64.812C99.0153 64.812 98.9133 65.0023 98.6752 65.3149C98.5596 65.4711 98.41 65.6546 98.2128 65.8517C98.0224 66.0487 97.8115 66.2865 97.5395 66.5108C96.5125 67.4621 94.8939 68.5153 93.0781 69.589C92.1735 70.1326 91.3234 70.6558 90.5685 71.1654C89.8272 71.6886 89.1743 72.1779 88.6778 72.6468C87.6713 73.5709 87.1952 74.2912 87.134 74.2504C87.1136 74.2368 87.2224 74.0533 87.4401 73.7272C87.5421 73.5641 87.6849 73.367 87.8685 73.1632C88.0453 72.9525 88.2426 72.7011 88.501 72.4633C88.9839 71.9604 89.6368 71.4372 90.3781 70.8868C91.133 70.3568 91.9831 69.8132 92.8944 69.2764C94.7103 68.2028 96.3289 67.2039 97.3763 66.3205C98.4372 65.4508 98.9677 64.778 99.0221 64.8188L99.0153 64.812Z" fill="#FF9A6C"/>
<path d="M130.987 62.9026C130.987 62.9026 130.653 62.9502 130.041 62.9773C129.361 62.9977 128.497 63.0181 127.47 63.0453C125.301 63.0861 122.302 63.12 118.99 63.1268C118.378 63.1268 117.772 63.1268 117.194 63.1268L117.262 63.1132C111.951 65.3964 107.795 66.9525 107.727 66.7418C107.727 66.7214 107.986 66.6467 108.455 66.4632C108.985 66.2458 109.645 65.974 110.441 65.6478C112.189 64.9004 114.508 63.9083 117.119 62.7871L117.153 62.7735H117.187C117.766 62.7735 118.371 62.7735 118.983 62.7667C122.295 62.7531 125.294 62.7667 127.464 62.7871C128.491 62.8075 129.354 62.8211 130.034 62.8347C130.64 62.855 130.98 62.8754 130.98 62.9026H130.987Z" fill="#FF9A6C"/>
<path d="M135.829 68.5697C135.829 68.5697 135.516 68.6377 134.938 68.692C134.285 68.7464 133.469 68.8143 132.496 68.8959C130.436 69.0522 127.586 69.2424 124.437 69.4327C123.642 69.4802 122.873 69.521 122.125 69.5686L122.179 69.555C119.758 70.5063 117.636 71.3285 116.113 71.8993C115.399 72.1575 114.8 72.375 114.318 72.5584C113.896 72.7079 113.658 72.7759 113.651 72.7555C113.644 72.7351 113.862 72.6264 114.27 72.4429C114.746 72.2391 115.331 71.9876 116.025 71.6886C117.528 71.0567 119.636 70.2005 122.043 69.2288L122.071 69.2152H122.098C122.846 69.1677 123.621 69.1201 124.41 69.0725C127.559 68.8823 130.409 68.7328 132.476 68.6444C133.455 68.6105 134.272 68.5833 134.924 68.5561C135.503 68.5425 135.822 68.5493 135.822 68.5765L135.829 68.5697Z" fill="#FF9A6C"/>
<path d="M135.203 73.9105C135.23 74.0057 131.129 75.2288 126.042 76.6422C120.955 78.0556 116.813 79.1224 116.786 79.0205C116.759 78.9253 120.86 77.7022 125.947 76.2888C131.034 74.8754 135.176 73.8086 135.203 73.9105Z" fill="#FF9A6C"/>
<path d="M104.354 69.4123C104.354 69.4734 104.021 69.521 103.531 69.7113C103.042 69.9015 102.402 70.2753 101.858 70.8664C101.314 71.4576 101.001 72.1235 100.852 72.6332C100.702 73.1428 100.682 73.4758 100.62 73.4758C100.58 73.4758 100.505 73.1292 100.6 72.572C100.688 72.0148 101.001 71.2606 101.586 70.6218C102.178 69.9831 102.899 69.6093 103.45 69.4734C104 69.3307 104.354 69.3783 104.354 69.4191V69.4123Z" fill="#FF9A6C"/>
<path d="M107.068 74.1756C107.068 74.23 106.748 74.2911 106.285 74.495C105.823 74.6988 105.211 75.0861 104.762 75.7045C104.313 76.3229 104.123 77.0227 104.075 77.5256C104.021 78.0352 104.068 78.3614 104.007 78.3682C103.966 78.3818 103.824 78.0624 103.817 77.512C103.803 76.9684 103.96 76.1802 104.47 75.4871C104.973 74.794 105.68 74.4066 106.197 74.2503C106.728 74.0941 107.068 74.128 107.074 74.1756H107.068Z" fill="#FF9A6C"/>
<path d="M109.788 80.1417C109.849 80.23 109.312 80.6377 109.094 81.3988C108.856 82.1462 109.074 82.785 108.979 82.8258C108.938 82.8461 108.815 82.7034 108.727 82.4248C108.639 82.1462 108.611 81.7249 108.741 81.2901C108.87 80.8552 109.128 80.5222 109.353 80.3388C109.577 80.1553 109.761 80.1009 109.781 80.1417H109.788Z" fill="#FF9A6C"/>
<path d="M54.7274 139.191C54.7274 139.191 54.6594 139.293 54.503 139.456C54.3125 139.646 54.0813 139.884 53.8025 140.163C53.1496 140.808 52.2722 141.671 51.2045 142.724C49.001 144.878 45.9678 147.868 42.5605 151.116C39.1532 154.364 35.9907 157.225 33.6104 159.196C32.427 160.188 31.4477 160.956 30.754 161.479C30.4344 161.71 30.1691 161.907 29.9515 162.063C29.7679 162.192 29.6659 162.26 29.6591 162.247C29.6523 162.233 29.7407 162.152 29.9107 162.002C30.1147 161.825 30.3664 161.615 30.6724 161.363C31.3321 160.813 32.291 160.011 33.4472 158.999C35.7731 156.98 38.9016 154.099 42.3088 150.851C45.6957 147.624 48.7561 144.702 51.0209 142.541C52.143 141.488 53.0612 140.638 53.7004 140.061C53.9997 139.796 54.2445 139.585 54.4486 139.402C54.6186 139.252 54.7138 139.184 54.7274 139.191Z" fill="#FF9A6C"/>
<path d="M170.126 103.286C168.541 99.3172 163.692 98.7192 159.959 99.2492C159.87 99.2628 158.891 99.3919 158.802 99.4055L159.285 101.403C159.285 101.403 160.747 101.043 160.999 101.023C161.795 100.962 162.604 100.955 163.4 101.023C165.086 101.165 167.086 101.77 168.024 103.279C168.637 104.264 168.773 105.453 168.698 106.629C168.691 106.758 168.677 106.894 168.664 107.023C168.657 107.091 168.65 107.166 168.643 107.233C168.643 107.254 168.643 107.267 168.643 107.281C168.643 107.281 168.643 107.288 168.643 107.295C168.589 107.648 168.535 108.001 168.467 108.355C168.106 110.237 167.596 112.099 167.066 113.94C165.617 118.955 163.91 123.902 162.162 128.815C160.448 133.639 158.666 138.443 156.844 143.227C156.211 144.885 155.579 146.543 154.933 148.194C154.62 148.996 154.253 149.791 153.987 150.613C153.974 150.654 153.96 150.688 153.946 150.722C153.756 151.198 154.157 151.755 154.606 151.884C155.143 152.04 155.586 151.694 155.769 151.225C156.606 149.105 157.429 146.978 158.238 144.851C160.067 140.067 161.856 135.263 163.583 130.439C165.413 125.329 167.195 120.199 168.725 114.987C169.289 113.064 169.827 111.127 170.221 109.163C170.609 107.233 170.881 105.161 170.133 103.279L170.126 103.286Z" fill="#E0E0E0"/>
<path d="M170.126 103.286C170.126 103.286 170.351 103.687 170.514 104.529C170.691 105.365 170.725 106.649 170.459 108.253C169.942 111.46 168.603 115.972 166.821 121.476C165.923 124.228 164.883 127.225 163.74 130.432C162.563 133.626 161.298 137.044 159.972 140.632C159.299 142.426 158.646 144.274 157.918 146.142C157.558 147.08 157.191 148.025 156.823 148.976C156.64 149.452 156.456 149.934 156.266 150.417L155.987 151.144C155.905 151.381 155.762 151.68 155.518 151.864C155.286 152.061 154.94 152.156 154.634 152.088C154.321 152.027 154.062 151.823 153.892 151.572C153.722 151.327 153.641 150.967 153.77 150.654L154.055 149.92C154.436 148.928 154.824 147.936 155.218 146.931C155.987 144.926 156.783 142.888 157.531 140.815C159.231 136.174 160.931 131.669 162.495 127.32C164.039 122.964 165.454 118.779 166.637 114.783C167.229 112.785 167.78 110.849 168.181 108.953C168.371 108.002 168.555 107.071 168.569 106.147C168.582 105.229 168.433 104.325 168.025 103.558C167.617 102.79 166.93 102.233 166.182 101.872C165.427 101.505 164.617 101.302 163.828 101.2C163.033 101.098 162.244 101.084 161.482 101.118C161.101 101.118 160.734 101.2 160.374 101.288C160.013 101.363 159.659 101.444 159.313 101.519L159.197 101.546L159.17 101.438C158.993 100.704 158.843 100.058 158.694 99.4397L158.666 99.3242L158.782 99.3038C160.816 98.9913 162.686 98.8893 164.277 99.1544C165.869 99.4058 167.181 99.9358 168.072 100.609C168.977 101.274 169.48 101.995 169.759 102.498C170.017 103.014 170.119 103.293 170.119 103.293C170.119 103.293 170.078 103.231 170.01 103.102C169.936 102.973 169.854 102.769 169.711 102.532C169.412 102.049 168.909 101.349 168.004 100.71C167.113 100.065 165.821 99.5553 164.25 99.3242C162.672 99.0796 160.836 99.1951 158.816 99.5213L158.905 99.3854C159.054 100.004 159.211 100.642 159.394 101.376L159.251 101.288C159.605 101.206 159.965 101.125 160.333 101.043C160.7 100.955 161.074 100.867 161.462 100.867C162.237 100.826 163.033 100.84 163.849 100.941C164.665 101.05 165.501 101.247 166.29 101.628C167.072 102.001 167.821 102.599 168.269 103.428C168.712 104.251 168.868 105.209 168.861 106.16C168.854 107.118 168.664 108.07 168.48 109.021C168.086 110.937 167.535 112.88 166.95 114.885C165.773 118.887 164.366 123.087 162.829 127.442C161.271 131.791 159.578 136.303 157.871 140.944C157.116 143.023 156.327 145.055 155.552 147.067C155.164 148.065 154.776 149.058 154.395 150.043L154.103 150.79C154.021 150.974 154.069 151.191 154.191 151.375C154.429 151.755 154.96 151.884 155.293 151.592C155.47 151.449 155.565 151.273 155.654 151.014L155.932 150.294C156.116 149.812 156.307 149.336 156.49 148.86C156.857 147.909 157.225 146.965 157.592 146.034C158.326 144.172 158.986 142.324 159.659 140.53C160.992 136.942 162.264 133.538 163.454 130.344C164.604 127.143 165.658 124.153 166.576 121.408C168.392 115.918 169.759 111.426 170.317 108.239C170.602 106.649 170.589 105.385 170.439 104.55C170.303 103.714 170.099 103.299 170.126 103.293V103.286Z" fill="#263238"/>
<path d="M124.002 155.329C122.424 153.875 120.853 152.407 119.289 150.94C115.725 147.59 112.189 144.213 108.693 140.795C104.898 137.084 101.137 133.327 97.5258 129.433C96.1112 127.904 94.7102 126.348 93.4044 124.731C93.2684 124.561 93.1324 124.391 92.9963 124.221C92.9759 124.194 92.9351 124.14 92.9147 124.119C92.8467 124.038 92.7855 123.95 92.7175 123.861C92.5067 123.576 92.2958 123.29 92.0918 122.998C91.6021 122.285 91.1465 121.53 90.8948 120.695C90.2556 118.595 91.2349 116.855 92.8331 115.639C93.6016 115.048 94.4722 114.579 95.3495 114.178C95.4243 114.144 95.4991 114.11 95.5739 114.076C95.6011 114.063 95.7507 114.002 95.7779 113.995C95.8664 113.961 95.9548 113.927 96.0432 113.893C96.2132 114.029 96.39 114.151 96.5873 114.239C97.0293 114.45 97.5666 114.504 97.995 114.26C98.3419 114.063 98.5663 113.682 98.6411 113.288C98.7159 112.894 98.6547 112.486 98.5323 112.099C98.3419 111.481 97.9338 110.855 97.3082 110.713C96.7913 110.597 96.2404 110.849 95.914 111.263C95.7371 111.487 95.6215 111.752 95.5535 112.031C92.6563 113.064 89.5483 115.096 88.9158 118.147C88.4601 120.382 89.4122 122.475 90.684 124.262C91.7926 125.811 93.0303 127.259 94.2953 128.686C97.791 132.627 101.518 136.378 105.265 140.081C108.992 143.771 112.774 147.399 116.589 150.994C118.568 152.863 120.527 154.786 122.574 156.586C122.601 156.614 122.635 156.641 122.662 156.668C123.56 157.49 124.9 156.158 124.002 155.329Z" fill="#E0E0E0"/>
<path d="M124.002 155.329C124.002 155.329 124.022 155.343 124.063 155.384C124.104 155.425 124.165 155.479 124.22 155.581C124.342 155.764 124.403 156.158 124.131 156.525C124.002 156.702 123.798 156.865 123.526 156.94C123.261 157.015 122.927 156.953 122.669 156.743C122.2 156.328 121.669 155.832 121.071 155.282C119.874 154.174 118.412 152.822 116.711 151.252C115.038 149.649 113.134 147.828 111.026 145.816C106.816 141.78 101.763 137.017 96.4989 131.363C95.1863 129.95 93.8533 128.482 92.5475 126.933C91.8946 126.158 91.2553 125.356 90.65 124.514C90.0379 123.671 89.4871 122.761 89.0994 121.755C88.7186 120.756 88.5281 119.648 88.671 118.548C88.739 117.997 88.9022 117.467 89.113 116.951C89.3442 116.448 89.6299 115.965 89.9699 115.524C91.3641 113.771 93.384 112.629 95.4923 111.861L95.3767 111.99C95.4515 111.678 95.6011 111.331 95.8528 111.059C96.1112 110.781 96.4513 110.584 96.8321 110.523C97.213 110.455 97.6278 110.577 97.9203 110.815C98.5119 111.297 98.7568 112.011 98.8452 112.697C98.9336 113.383 98.6344 114.233 97.8999 114.511C97.5462 114.64 97.1654 114.62 96.8321 114.525C96.4853 114.437 96.2268 114.206 95.9412 114.036L96.118 114.063C95.1863 114.416 94.2885 114.871 93.4656 115.415C92.6495 115.959 91.915 116.618 91.4389 117.44C90.9561 118.255 90.7793 119.22 90.9561 120.131C91.1193 121.048 91.5818 121.891 92.0986 122.665C93.1256 124.242 94.4178 125.594 95.6011 126.967C96.7913 128.333 97.9475 129.678 99.1512 130.921C103.905 135.936 108.312 140.265 112.046 143.832C115.773 147.406 118.724 150.315 120.812 152.265C121.839 153.237 122.635 153.998 123.193 154.528C123.451 154.779 123.655 154.976 123.805 155.119C123.941 155.255 124.009 155.323 124.002 155.329C123.995 155.336 123.92 155.268 123.778 155.146C123.621 155.01 123.41 154.82 123.145 154.575C122.581 154.059 121.764 153.318 120.717 152.36C118.602 150.437 115.616 147.556 111.869 144.002C108.115 140.462 103.681 136.154 98.9064 131.139C97.7026 129.895 96.5329 128.557 95.3359 127.184C94.1457 125.812 92.8535 124.466 91.7994 122.856C91.2757 122.061 90.7792 121.184 90.6024 120.192C90.4052 119.207 90.6024 118.133 91.1193 117.256C91.6294 116.373 92.4115 115.666 93.2548 115.109C94.1049 114.545 95.0162 114.09 95.9752 113.716L96.05 113.689L96.152 113.743C96.4104 113.886 96.6417 114.104 96.9273 114.172C97.2062 114.253 97.5054 114.26 97.7638 114.172C98.2875 113.974 98.5527 113.329 98.4779 112.731C98.4099 112.126 98.1651 111.474 97.6958 111.1C97.2334 110.713 96.5261 110.849 96.118 111.304C95.9208 111.521 95.7916 111.8 95.7303 112.079L95.7099 112.174L95.6147 112.208C93.554 112.955 91.5818 114.083 90.2556 115.755C89.9291 116.176 89.6571 116.625 89.4395 117.1C89.2422 117.583 89.0858 118.079 89.0246 118.595C88.8886 119.621 89.0654 120.668 89.4327 121.626C89.7999 122.591 90.3372 123.474 90.9357 124.303C91.5342 125.132 92.1666 125.934 92.8127 126.702C94.1117 128.244 95.4379 129.712 96.7437 131.125C101.987 136.779 107.027 141.569 111.203 145.626C113.29 147.651 115.181 149.486 116.847 151.096C118.527 152.679 119.976 154.045 121.159 155.166C121.751 155.724 122.275 156.22 122.73 156.648C122.955 156.845 123.247 156.899 123.492 156.838C123.737 156.784 123.934 156.634 124.056 156.471C124.322 156.138 124.274 155.771 124.172 155.588C124.077 155.397 123.975 155.329 123.988 155.316L124.002 155.329Z" fill="#263238"/>
<path d="M165.848 197.044C159.102 192.145 150.458 194.876 142.827 193.973C142.773 193.966 142.528 193.932 142.473 193.925C142.283 193.891 142.093 193.857 141.902 193.816C141.508 193.735 141.113 193.633 140.726 193.504C140.556 193.449 140.386 193.381 140.215 193.32C140.215 193.32 140.215 193.32 140.202 193.32C140.202 193.32 140.195 193.32 140.188 193.314C140.107 193.273 140.025 193.239 139.95 193.198C139.61 193.028 139.291 192.838 138.978 192.62C138.971 192.62 138.964 192.607 138.957 192.6C138.923 192.573 138.889 192.546 138.835 192.505C138.651 192.349 138.468 192.199 138.284 192.043C137.958 191.751 137.638 191.445 137.345 191.126C136.842 190.575 136.4 189.964 136.081 189.291C135.645 188.346 135.584 187.395 135.822 186.498C136.087 185.499 136.686 184.561 137.386 183.766C138.277 182.761 139.352 182 140.338 181.096C142.725 178.908 144.201 175.884 144.568 172.677C144.677 171.753 144.663 170.822 144.568 169.898C147.887 168.844 150.682 166.412 152.124 163.13L158.211 147.956L154.464 146.455L148.411 161.54C147.118 164.455 144.221 166.378 141.025 166.432C138.903 166.453 136.869 165.698 135.305 164.265L121.778 151.809L119.044 154.772L132.571 167.227C134.85 169.32 137.788 170.462 140.875 170.462C140.95 170.462 141.025 170.462 141.1 170.462C141.433 170.462 141.759 170.434 142.086 170.4C142.269 172.738 141.684 175.103 140.426 177.1C139.637 178.344 138.597 179.288 137.468 180.213C136.455 181.042 135.543 181.973 134.768 183.026C133.299 185.03 132.7 187.599 133.659 189.957C134.605 192.287 136.693 194.496 139.012 195.522C142.269 196.969 146.064 196.704 149.54 196.582C153.498 196.446 157.327 196.269 160.972 197.404C162.652 197.927 164.284 198.824 165.576 200.041C167.188 201.57 168.324 203.527 169.099 205.708C170.276 209.01 170.487 212.483 169.63 215.894C168.875 218.89 167.467 221.71 165.631 224.197C159.177 232.963 147.288 236.36 137.053 233.004C134.36 232.12 131.762 230.89 129.15 229.803C125.995 228.492 122.846 227.18 119.69 225.862C119.493 225.781 119.289 225.692 119.092 225.611C118.459 225.346 117.704 225.896 117.541 226.494C117.344 227.221 117.793 227.778 118.425 228.043C123.73 230.252 129.028 232.467 134.333 234.668C144.541 238.909 156.728 236.714 164.713 229.042C169.31 224.625 172.602 218.306 172.697 211.857C172.772 206.347 170.432 200.346 165.876 197.037L165.848 197.044Z" fill="#455A64"/>
<path d="M165.848 197.044C165.848 197.044 166.127 197.248 166.658 197.663C167.161 198.111 167.929 198.763 168.745 199.803C169.562 200.829 170.466 202.209 171.201 203.989C171.942 205.762 172.547 207.93 172.697 210.437C173.064 215.418 171.221 221.724 166.596 227.16C166.025 227.84 165.399 228.492 164.74 229.138C164.4 229.443 164.053 229.749 163.699 230.062L163.169 230.531L162.604 230.959C161.128 232.155 159.428 233.153 157.626 234.057C153.994 235.803 149.764 236.904 145.275 236.911C143.038 236.918 140.732 236.714 138.454 236.15C136.162 235.62 133.938 234.682 131.701 233.745C129.45 232.807 127.158 231.856 124.818 230.884C123.648 230.401 122.472 229.905 121.282 229.416C120.69 229.171 120.091 228.92 119.486 228.669L118.582 228.295C118.289 228.179 117.935 228.03 117.691 227.765C117.439 227.507 117.276 227.133 117.303 226.759C117.323 226.392 117.507 226.032 117.779 225.794C118.044 225.55 118.405 225.38 118.799 225.407C119.003 225.421 119.173 225.509 119.316 225.57L119.779 225.76C121.01 226.27 122.254 226.786 123.505 227.31C126.008 228.356 128.559 229.389 131.129 230.497C133.693 231.591 136.291 232.759 139.073 233.418C141.854 234.071 144.779 234.261 147.696 233.969C150.614 233.677 153.518 232.895 156.232 231.625C158.945 230.347 161.455 228.553 163.563 226.331C165.665 224.109 167.399 221.473 168.548 218.564C169.12 217.11 169.562 215.595 169.772 214.039C169.99 212.483 169.983 210.886 169.766 209.316C169.548 207.747 169.106 206.197 168.48 204.723C167.855 203.255 167.011 201.862 165.909 200.686C164.821 199.504 163.448 198.6 161.945 197.982C160.441 197.37 158.823 197.031 157.191 196.854C153.913 196.507 150.566 196.779 147.207 196.854C145.527 196.895 143.82 196.888 142.127 196.623C140.447 196.351 138.753 195.821 137.332 194.802C136.318 194.088 135.428 193.212 134.693 192.22C133.972 191.221 133.374 190.113 133.115 188.89C132.864 187.667 132.986 186.396 133.387 185.234C133.775 184.066 134.462 183.012 135.251 182.102C136.026 181.171 136.958 180.369 137.869 179.628C138.767 178.867 139.597 178.025 140.222 177.046C141.48 175.083 142.065 172.718 141.882 170.428L142.079 170.591C139.59 170.842 137.053 170.319 134.89 169.13C133.809 168.546 132.83 167.771 131.959 166.935C131.075 166.12 130.191 165.304 129.307 164.496C125.784 161.248 122.315 158.054 118.901 154.908L118.772 154.792L118.888 154.663C119.813 153.664 120.717 152.679 121.622 151.701L121.737 151.572L121.866 151.687C125.199 154.758 128.477 157.775 131.687 160.738C132.49 161.479 133.292 162.213 134.088 162.947C134.897 163.667 135.632 164.462 136.523 165.012C138.298 166.14 140.501 166.534 142.507 166.093C144.527 165.671 146.33 164.455 147.472 162.797C147.771 162.389 147.996 161.941 148.213 161.492C148.404 161.017 148.594 160.548 148.785 160.079C149.166 159.141 149.54 158.204 149.914 157.273C151.41 153.556 152.865 149.927 154.287 146.394L154.341 146.251L154.477 146.305C155.783 146.829 157.007 147.325 158.224 147.807L158.36 147.861L158.306 147.997C156.49 152.509 154.749 156.838 153.083 160.983C152.648 162.016 152.308 163.062 151.777 164.041C151.253 165.012 150.614 165.909 149.866 166.684C148.383 168.26 146.52 169.381 144.568 170.007L144.656 169.871C144.969 172.65 144.31 175.382 143.099 177.651C142.494 178.793 141.725 179.819 140.855 180.702C139.977 181.592 138.991 182.292 138.141 183.101C137.291 183.896 136.563 184.806 136.128 185.832C135.679 186.845 135.645 187.993 136.04 188.979C136.434 189.957 137.087 190.8 137.835 191.486C138.189 191.853 138.57 192.186 138.95 192.492C139.365 192.743 139.767 193.022 140.209 193.225H140.202C142.188 193.986 144.235 194.02 146.105 194.075C147.989 194.102 149.75 194.02 151.383 193.98C154.647 193.871 157.429 193.946 159.625 194.401C161.822 194.829 163.386 195.543 164.379 196.093C165.352 196.684 165.821 197.031 165.821 197.031C165.821 197.031 165.692 196.956 165.454 196.806C165.209 196.664 164.855 196.406 164.359 196.134C163.359 195.597 161.795 194.904 159.605 194.489C157.422 194.048 154.647 193.993 151.389 194.116C149.757 194.17 147.996 194.252 146.105 194.231C144.228 194.184 142.167 194.156 140.141 193.389C139.699 193.185 139.284 192.906 138.848 192.641C138.454 192.328 138.073 191.989 137.713 191.622C136.951 190.929 136.278 190.073 135.863 189.053C135.441 188.034 135.475 186.811 135.944 185.758C136.393 184.698 137.135 183.76 138.005 182.944C138.869 182.129 139.855 181.422 140.712 180.546C141.562 179.676 142.317 178.664 142.909 177.542C144.092 175.307 144.738 172.623 144.425 169.898L144.412 169.796L144.514 169.762C146.432 169.144 148.254 168.043 149.696 166.5C150.424 165.739 151.056 164.863 151.559 163.905C152.07 162.96 152.416 161.893 152.852 160.867C154.511 156.722 156.245 152.387 158.054 147.875L158.136 148.065C156.925 147.583 155.694 147.094 154.389 146.57L154.586 146.489C153.171 150.022 151.716 153.651 150.226 157.375C149.852 158.305 149.478 159.243 149.104 160.181C148.914 160.65 148.723 161.125 148.533 161.594C148.309 162.063 148.071 162.532 147.765 162.953C146.581 164.679 144.704 165.95 142.603 166.385C140.508 166.847 138.216 166.439 136.373 165.27C135.434 164.686 134.693 163.877 133.891 163.171C133.095 162.437 132.292 161.703 131.49 160.962C128.273 158 124.995 154.983 121.662 151.918H121.907C121.003 152.89 120.098 153.875 119.173 154.874V154.629C122.574 157.769 126.049 160.969 129.572 164.21C130.449 165.019 131.333 165.834 132.224 166.65C133.095 167.486 134.027 168.226 135.088 168.797C137.189 169.945 139.651 170.455 142.065 170.21L142.249 170.19L142.263 170.374C142.453 172.745 141.848 175.184 140.549 177.216C139.896 178.235 139.039 179.105 138.128 179.88C137.196 180.641 136.312 181.402 135.55 182.313C134.775 183.209 134.129 184.208 133.755 185.323C133.374 186.43 133.265 187.64 133.496 188.788C133.727 189.937 134.312 191.01 135.006 191.975C135.713 192.933 136.577 193.789 137.556 194.476C138.916 195.447 140.555 195.964 142.201 196.236C143.854 196.494 145.541 196.507 147.214 196.467C150.567 196.385 153.919 196.113 157.245 196.467C158.904 196.65 160.55 196.99 162.101 197.622C163.638 198.254 165.066 199.198 166.188 200.415C167.324 201.624 168.181 203.058 168.827 204.56C169.466 206.061 169.915 207.638 170.14 209.248C170.364 210.852 170.364 212.483 170.146 214.073C169.929 215.663 169.48 217.205 168.895 218.68C167.725 221.636 165.971 224.299 163.835 226.555C161.693 228.805 159.149 230.626 156.395 231.917C153.641 233.201 150.696 233.989 147.744 234.288C144.792 234.587 141.827 234.39 139.012 233.724C136.189 233.051 133.584 231.876 131.021 230.775C128.457 229.668 125.906 228.635 123.403 227.581C122.152 227.058 120.914 226.542 119.683 226.032L119.221 225.842C119.058 225.774 118.928 225.713 118.792 225.706C118.514 225.686 118.221 225.815 118.003 226.012C117.541 226.399 117.487 227.14 117.922 227.547C118.126 227.765 118.398 227.887 118.711 228.01L119.615 228.383C120.214 228.635 120.812 228.879 121.411 229.131C122.601 229.627 123.778 230.116 124.947 230.605C127.28 231.577 129.579 232.535 131.823 233.473C134.067 234.417 136.264 235.348 138.529 235.878C140.787 236.442 143.072 236.646 145.289 236.646C149.737 236.646 153.933 235.559 157.544 233.84C159.333 232.95 161.026 231.964 162.489 230.782L163.046 230.354L163.57 229.892C163.917 229.586 164.264 229.28 164.604 228.974C165.257 228.336 165.875 227.69 166.454 227.017C171.058 221.636 172.908 215.377 172.568 210.437C172.425 207.957 171.833 205.79 171.112 204.023C170.391 202.243 169.507 200.87 168.698 199.837C167.895 198.797 167.14 198.132 166.644 197.676C166.12 197.255 165.855 197.031 165.855 197.031L165.848 197.044Z" fill="#263238"/>
<path d="M144.48 169.28C144.418 169.28 144.405 169.028 144.214 168.709C144.038 168.403 143.589 168.009 143.085 168.104C142.582 168.213 142.283 168.716 142.188 169.062C142.086 169.422 142.14 169.667 142.086 169.681C142.052 169.701 141.889 169.456 141.936 169.008C141.963 168.79 142.038 168.532 142.215 168.288C142.378 168.05 142.657 167.812 143.017 167.737C143.385 167.669 143.732 167.798 143.97 167.975C144.214 168.152 144.364 168.383 144.446 168.587C144.616 169.001 144.52 169.28 144.486 169.273L144.48 169.28Z" fill="#263238"/>
<path d="M154.804 148.161C154.804 148.161 154.749 148.46 154.593 148.969C154.43 149.486 154.185 150.219 153.865 151.13C153.226 152.944 152.274 155.431 151.124 158.136C150.546 159.488 149.982 160.765 149.444 161.921C148.907 163.076 148.343 164.102 147.737 164.863C147.139 165.638 146.5 166.134 146.03 166.405C145.792 166.534 145.602 166.63 145.459 166.67C145.323 166.718 145.255 166.738 145.248 166.725C145.235 166.691 145.514 166.575 145.956 166.283C146.391 165.984 146.983 165.474 147.533 164.707C148.662 163.178 149.614 160.67 150.798 157.986C151.947 155.289 152.933 152.822 153.634 151.028C153.967 150.192 154.246 149.479 154.47 148.908C154.674 148.412 154.797 148.133 154.817 148.147L154.804 148.161Z" fill="white"/>
<path d="M142.759 170.455C142.664 170.489 142.473 170.136 142.562 169.68C142.643 169.225 142.95 168.967 143.024 169.028C143.106 169.089 142.984 169.381 142.922 169.748C142.848 170.108 142.861 170.428 142.759 170.455Z" fill="white"/>
<path d="M166.889 199.158C166.855 199.205 166.243 198.757 165.196 198.131C164.148 197.506 162.652 196.732 160.897 196.12C159.143 195.515 157.483 195.196 156.273 195.047C155.062 194.897 154.3 194.87 154.307 194.809C154.307 194.768 155.069 194.7 156.3 194.788C157.531 194.877 159.231 195.155 161.02 195.774C162.808 196.392 164.318 197.221 165.338 197.907C166.365 198.6 166.923 199.124 166.896 199.151L166.889 199.158Z" fill="white"/>
<path d="M170.568 204.865C170.466 204.879 170.282 204.111 169.902 203.241C169.521 202.365 169.079 201.712 169.16 201.645C169.228 201.577 169.827 202.161 170.235 203.092C170.643 204.023 170.663 204.859 170.568 204.865Z" fill="white"/>
<path d="M135.019 184.269C135.121 184.324 134.441 185.479 134.339 187.069C134.21 188.659 134.707 189.903 134.598 189.943C134.523 189.998 133.843 188.741 133.979 187.042C134.094 185.343 134.958 184.202 135.026 184.269H135.019Z" fill="white"/>
<path d="M128.291 228.006C130.989 221.685 128.048 214.376 121.722 211.68C115.396 208.984 108.081 211.922 105.383 218.243C102.684 224.563 105.625 231.872 111.951 234.568C118.277 237.264 125.593 234.326 128.291 228.006Z" fill="#E0E0E0"/>
<path d="M104.613 225.488C104.613 225.488 104.592 225.42 104.565 225.291C104.538 225.142 104.504 224.945 104.463 224.707C104.415 224.449 104.368 224.129 104.361 223.749C104.34 223.368 104.306 222.927 104.347 222.431C104.368 221.439 104.579 220.222 105.041 218.884C105.51 217.552 106.286 216.104 107.476 214.766C108.659 213.441 110.251 212.197 112.216 211.436C114.175 210.689 116.473 210.301 118.82 210.702C119.996 210.872 121.166 211.239 122.281 211.776C122.853 212.021 123.376 212.367 123.92 212.7C124.431 213.081 124.954 213.448 125.417 213.903C127.335 215.636 128.702 218.075 129.246 220.759C129.742 223.45 129.375 226.229 128.239 228.546C127.981 229.137 127.627 229.674 127.301 230.218C126.92 230.721 126.559 231.237 126.124 231.679C125.287 232.596 124.335 233.371 123.308 233.962C121.275 235.205 118.997 235.701 116.902 235.729C114.794 235.749 112.855 235.185 111.264 234.39C109.666 233.588 108.407 232.528 107.476 231.468C106.551 230.401 105.905 229.348 105.517 228.431C105.293 227.989 105.163 227.561 105.041 227.201C104.905 226.841 104.83 226.528 104.783 226.27C104.735 226.032 104.694 225.842 104.66 225.692C104.633 225.563 104.626 225.495 104.633 225.495C104.694 225.475 104.823 226.589 105.653 228.376C106.054 229.273 106.714 230.293 107.639 231.332C108.571 232.365 109.815 233.391 111.386 234.159C112.957 234.92 114.848 235.457 116.909 235.423C118.956 235.382 121.173 234.886 123.145 233.67C124.145 233.092 125.07 232.331 125.879 231.441C126.308 231.013 126.654 230.51 127.022 230.014C127.341 229.491 127.681 228.968 127.933 228.39C129.035 226.134 129.382 223.436 128.906 220.82C128.382 218.218 127.056 215.839 125.192 214.154C124.743 213.713 124.233 213.352 123.744 212.985C123.22 212.666 122.71 212.326 122.152 212.089C121.071 211.559 119.928 211.198 118.786 211.028C116.507 210.628 114.256 210.995 112.345 211.708C110.421 212.442 108.856 213.645 107.687 214.929C106.51 216.227 105.735 217.64 105.252 218.945C104.783 220.249 104.545 221.445 104.511 222.431C104.402 224.394 104.694 225.475 104.633 225.482L104.613 225.488Z" fill="#263238"/>
<g opacity="0.3">
<path d="M108.605 226.141C109.482 230.687 113.875 233.663 118.425 232.787C122.975 231.91 125.954 227.52 125.077 222.975C124.199 218.429 119.806 215.452 115.256 216.329C110.706 217.205 107.727 221.595 108.605 226.141Z" fill="black"/>
</g>
<path d="M108.605 224.136C109.482 228.682 113.875 231.658 118.425 230.782C122.975 229.905 125.954 225.516 125.077 220.97C124.199 216.424 119.806 213.447 115.256 214.324C110.706 215.201 107.727 219.59 108.605 224.136Z" fill="#E0E0E0"/>
<path d="M108.605 224.136C108.605 224.136 108.557 223.96 108.496 223.613C108.462 223.436 108.428 223.226 108.421 222.967C108.407 222.709 108.38 222.41 108.407 222.077C108.448 220.759 108.89 218.721 110.509 216.886C111.311 215.989 112.386 215.14 113.719 214.623C115.045 214.113 116.603 213.848 118.194 214.12C118.99 214.236 119.785 214.48 120.54 214.847C121.302 215.201 122.03 215.683 122.662 216.288C123.961 217.463 124.893 219.121 125.26 220.943C125.593 222.77 125.349 224.653 124.573 226.229C124.206 227.024 123.71 227.738 123.131 228.349C122.56 228.968 121.914 229.498 121.22 229.892C119.84 230.734 118.296 231.067 116.875 231.081C115.446 231.094 114.134 230.707 113.052 230.17C110.876 229.063 109.706 227.337 109.176 226.127C109.026 225.828 108.938 225.543 108.856 225.298C108.768 225.054 108.72 224.843 108.686 224.666C108.611 224.32 108.584 224.143 108.598 224.136C108.645 224.123 108.741 224.87 109.305 226.066C109.863 227.242 111.039 228.893 113.168 229.939C114.222 230.449 115.494 230.802 116.868 230.782C118.235 230.748 119.724 230.422 121.044 229.606C121.71 229.219 122.329 228.709 122.873 228.111C123.424 227.52 123.893 226.834 124.247 226.073C124.981 224.564 125.219 222.764 124.893 221.01C124.539 219.264 123.655 217.681 122.411 216.553C121.805 215.975 121.112 215.506 120.377 215.167C119.649 214.813 118.888 214.569 118.126 214.46C116.603 214.188 115.1 214.433 113.814 214.908C112.522 215.398 111.475 216.2 110.686 217.063C109.094 218.822 108.618 220.793 108.537 222.091C108.455 223.409 108.645 224.143 108.598 224.143L108.605 224.136Z" fill="#263238"/>
<path d="M167.868 111.895C167.902 112.133 167.739 112.384 167.331 112.432C167.127 112.459 166.916 112.432 166.766 112.35L166.862 112.078C166.984 112.146 167.14 112.174 167.29 112.153C167.453 112.133 167.548 112.051 167.535 111.936C167.521 111.827 167.433 111.773 167.242 111.793L167.093 111.813L167.066 111.596L167.317 111.222L166.705 111.304L166.671 111.039L167.678 110.91L167.705 111.127L167.426 111.535C167.691 111.542 167.841 111.684 167.868 111.895Z" fill="#263238"/>
<path d="M169.201 111.712C169.242 112.004 169.024 112.221 168.718 112.262C168.324 112.31 168.045 112.099 167.984 111.637C167.923 111.141 168.181 110.828 168.616 110.774C168.766 110.754 168.922 110.774 169.031 110.822L168.943 111.08C168.854 111.039 168.759 111.032 168.664 111.046C168.426 111.08 168.29 111.236 168.317 111.515C168.392 111.42 168.507 111.365 168.657 111.345C168.936 111.311 169.174 111.46 169.208 111.725L169.201 111.712ZM168.882 111.773C168.861 111.644 168.759 111.569 168.609 111.589C168.467 111.61 168.371 111.712 168.392 111.834C168.405 111.956 168.514 112.038 168.671 112.017C168.813 111.997 168.902 111.902 168.882 111.773Z" fill="#263238"/>
<path d="M169.188 110.957C169.16 110.76 169.31 110.597 169.534 110.57C169.759 110.543 169.942 110.665 169.963 110.856C169.99 111.053 169.847 111.216 169.623 111.243C169.398 111.27 169.215 111.155 169.188 110.951V110.957ZM169.745 110.883C169.732 110.781 169.65 110.726 169.555 110.74C169.453 110.754 169.392 110.828 169.405 110.93C169.419 111.032 169.5 111.093 169.602 111.08C169.698 111.066 169.766 110.991 169.752 110.89L169.745 110.883Z" fill="#263238"/>
<path d="M242.413 245.33C241.366 237.482 228.097 215.377 228.097 215.377L202.247 227.989L205.525 233.473L169.575 229.362L171.445 252.363C171.445 252.363 213.877 263.826 221.371 264.819C233.939 266.483 243.889 256.345 242.413 245.33Z" fill="#FFBF9D"/>
<path d="M233.94 242.483C233.899 242.483 233.899 242 233.606 241.199C233.321 240.404 232.688 239.296 231.525 238.311C230.376 237.312 228.682 236.544 226.724 236.041C224.758 235.545 222.541 235.158 220.222 234.777C215.577 234.03 211.32 233.69 208.246 233.534C206.709 233.452 205.457 233.425 204.593 233.391C204.199 233.377 203.866 233.371 203.601 233.357C203.376 233.343 203.254 233.337 203.254 233.323C203.254 233.309 203.376 233.296 203.601 233.282C203.873 233.275 204.199 233.262 204.593 233.248C205.457 233.235 206.709 233.228 208.252 233.275C211.34 233.364 215.611 233.67 220.276 234.417C222.609 234.798 224.813 235.198 226.805 235.715C228.791 236.238 230.519 237.054 231.688 238.114C232.872 239.153 233.484 240.322 233.736 241.151C233.865 241.565 233.912 241.905 233.933 242.136C233.946 242.367 233.946 242.483 233.933 242.483H233.94Z" fill="#FF9A6C"/>
<path d="M188.829 231.522L162.135 228.533L139.495 217.389L127.117 216.614C125.845 216.532 124.954 217.83 125.471 218.992C126.035 220.263 127.001 221.676 128.647 222.369C131.857 223.728 136.38 223.762 136.38 223.762L142.609 227.092L133.088 230.041L125.315 226.154C125.315 226.154 121.737 223.878 120.452 226.317C119.166 228.757 120.608 230.442 120.608 230.442C120.608 230.442 116.657 230.87 118.588 234.784C119.86 237.366 122.825 240.193 122.825 240.193C122.825 240.193 122.132 242.891 123.383 244.841C124.403 246.431 131.327 250.97 133.877 252.608C134.482 253.002 135.203 253.165 135.924 253.083L161.169 250.216L188.829 256.97V231.516V231.522Z" fill="#FFBF9D"/>
<path d="M141.242 236.789C141.242 236.789 140.943 236.918 140.379 237.068C139.814 237.217 138.991 237.4 137.964 237.577C136.937 237.754 135.706 237.924 134.333 238.026C133.986 238.032 133.646 238.1 133.265 238.06C133.081 238.046 132.891 238.039 132.7 238.026C132.51 237.998 132.333 237.944 132.143 237.91C131.762 237.842 131.401 237.706 131.034 237.57C130.66 237.455 130.306 237.271 129.939 237.108C127.056 235.708 124.764 233.942 123.131 232.657C122.315 232.012 121.683 231.462 121.248 231.067C120.812 230.68 120.588 230.449 120.608 230.429C120.629 230.408 120.88 230.605 121.343 230.959C121.86 231.353 122.512 231.856 123.295 232.454C124.954 233.677 127.273 235.403 130.096 236.775C130.456 236.932 130.796 237.115 131.163 237.224C131.517 237.353 131.871 237.489 132.224 237.557C132.401 237.598 132.578 237.652 132.748 237.672C132.925 237.686 133.095 237.699 133.272 237.706C133.612 237.747 133.972 237.686 134.312 237.686C135.679 237.598 136.903 237.462 137.923 237.319C138.95 237.176 139.773 237.027 140.345 236.925C140.916 236.823 141.229 236.762 141.236 236.789H141.242Z" fill="#FF9A6C"/>
<path d="M141.242 244.76C141.242 244.76 140.97 244.93 140.433 245.127C139.896 245.324 139.107 245.575 138.107 245.806C137.107 246.03 135.904 246.241 134.55 246.329C133.884 246.411 133.115 246.329 132.401 246.132C132.034 246.044 131.687 245.894 131.327 245.772C130.973 245.629 130.619 245.46 130.266 245.303C127.464 243.897 125.213 242.171 123.614 240.907C122.819 240.268 122.193 239.731 121.771 239.351C121.35 238.97 121.125 238.739 121.146 238.726C121.166 238.705 121.411 238.895 121.866 239.242C122.377 239.629 123.016 240.125 123.778 240.703C125.403 241.906 127.674 243.591 130.429 244.977C131.809 245.65 133.21 246.125 134.537 245.996C135.87 245.928 137.067 245.745 138.06 245.555C139.052 245.364 139.848 245.147 140.392 244.997C140.936 244.841 141.236 244.746 141.249 244.766L141.242 244.76Z" fill="#FF9A6C"/>
</g>
<defs>
<clipPath id="clip0_6832_16042">
<rect width="289" height="309" fill="white"/>
</clipPath>
</defs>
</svg>
