<svg width="14" height="14" viewBox="0 0 14 14" fill="none" xmlns="http://www.w3.org/2000/svg">
<path d="M6.99968 7.43783C6.33628 7.43783 5.68779 7.24111 5.1362 6.87255C4.58461 6.50399 4.1547 5.98014 3.90083 5.36724C3.64696 4.75435 3.58054 4.07994 3.70996 3.42929C3.83938 2.77865 4.15883 2.18099 4.62792 1.71191C5.09701 1.24282 5.69467 0.923364 6.34531 0.793943C6.99595 0.664522 7.67037 0.730946 8.28326 0.984814C8.89615 1.23868 9.42 1.6686 9.78856 2.22019C10.1571 2.77178 10.3538 3.42027 10.3538 4.08366C10.3528 4.97291 9.99903 5.82543 9.37024 6.45422C8.74144 7.08301 7.88892 7.43675 6.99968 7.43783ZM6.99968 1.60449C6.50934 1.60449 6.03002 1.74989 5.62232 2.02231C5.21463 2.29472 4.89687 2.68192 4.70922 3.13492C4.52158 3.58793 4.47249 4.08641 4.56815 4.56732C4.66381 5.04823 4.89992 5.48998 5.24664 5.8367C5.59336 6.18341 6.0351 6.41953 6.51601 6.51519C6.99693 6.61085 7.4954 6.56175 7.94841 6.37411C8.40142 6.18647 8.78861 5.86871 9.06103 5.46101C9.33344 5.05331 9.47884 4.57399 9.47884 4.08366C9.47746 3.42657 9.21581 2.79679 8.75118 2.33216C8.28655 1.86752 7.65677 1.60588 6.99968 1.60449Z" fill="white"/>
<path d="M12.0109 13.2708C11.8951 13.2701 11.7843 13.2237 11.7024 13.1418C11.6205 13.06 11.5742 12.9491 11.5734 12.8333C11.5734 10.8208 9.52009 9.1875 7.00009 9.1875C4.48009 9.1875 2.42676 10.8208 2.42676 12.8333C2.42599 12.9491 2.37965 13.06 2.29777 13.1418C2.21589 13.2237 2.10505 13.2701 1.98926 13.2708C1.87346 13.2701 1.76263 13.2237 1.68074 13.1418C1.59886 13.06 1.55252 12.9491 1.55176 12.8333C1.55176 10.3425 3.99592 8.3125 7.00009 8.3125C10.0043 8.3125 12.4484 10.3425 12.4484 12.8333C12.4477 12.9491 12.4013 13.06 12.3194 13.1418C12.2376 13.2237 12.1267 13.2701 12.0109 13.2708Z" fill="white"/>
</svg>
