<svg width="14" height="14" viewBox="0 0 14 14" fill="none" xmlns="http://www.w3.org/2000/svg">
<path d="M4.66699 3.354C4.5512 3.35324 4.44036 3.3069 4.35848 3.22502C4.2766 3.14314 4.23026 3.0323 4.22949 2.9165V1.1665C4.23026 1.05071 4.2766 0.939871 4.35848 0.857989C4.44036 0.776107 4.5512 0.729768 4.66699 0.729004C4.78279 0.729768 4.89362 0.776107 4.97551 0.857989C5.05739 0.939871 5.10373 1.05071 5.10449 1.1665V2.9165C5.10373 3.0323 5.05739 3.14314 4.97551 3.22502C4.89362 3.3069 4.78279 3.35324 4.66699 3.354Z" fill="white"/>
<path d="M9.33301 3.354C9.21721 3.35324 9.10638 3.3069 9.02449 3.22502C8.94261 3.14314 8.89627 3.0323 8.89551 2.9165V1.1665C8.89627 1.05071 8.94261 0.939871 9.02449 0.857989C9.10638 0.776107 9.21721 0.729768 9.33301 0.729004C9.4488 0.729768 9.55964 0.776107 9.64152 0.857989C9.7234 0.939871 9.76974 1.05071 9.77051 1.1665V2.9165C9.76974 3.0323 9.7234 3.14314 9.64152 3.22502C9.55964 3.3069 9.4488 3.35324 9.33301 3.354Z" fill="white"/>
<path d="M4.95833 8.45839C4.8821 8.45746 4.8068 8.44161 4.73667 8.41172C4.66509 8.38283 4.59974 8.34045 4.54417 8.28689C4.43727 8.17624 4.37675 8.02889 4.375 7.87505C4.37592 7.79882 4.39178 7.72352 4.42167 7.65339C4.45126 7.58272 4.49269 7.51762 4.54417 7.46089C4.59994 7.40815 4.66528 7.36657 4.73667 7.33839C4.84317 7.2953 4.95987 7.28394 5.07269 7.30568C5.1855 7.32741 5.28962 7.38131 5.3725 7.46089C5.479 7.57274 5.5394 7.72063 5.54167 7.87505C5.54039 7.91416 5.53649 7.95313 5.53 7.99172C5.52365 8.02827 5.51185 8.06367 5.495 8.09672C5.48225 8.1339 5.4646 8.16921 5.4425 8.20172C5.42097 8.23228 5.39759 8.2615 5.3725 8.28922C5.26065 8.39572 5.11276 8.45612 4.95833 8.45839Z" fill="white"/>
<path d="M7.00033 8.45867C6.9241 8.45775 6.84879 8.4419 6.77866 8.41201C6.70727 8.38382 6.64193 8.34224 6.58616 8.28951C6.47871 8.17827 6.41814 8.02999 6.41699 7.87534C6.41784 7.79891 6.43369 7.7234 6.46366 7.65309C6.49325 7.58242 6.53468 7.51732 6.58616 7.46059C6.64193 7.40786 6.70727 7.36628 6.77866 7.33809C6.88489 7.29342 7.00197 7.28121 7.11513 7.30301C7.22829 7.32482 7.33246 7.37965 7.41449 7.46059C7.52112 7.57259 7.58154 7.72071 7.58366 7.87534C7.58238 7.91445 7.57849 7.95342 7.57199 7.99201C7.56564 8.02856 7.55384 8.06395 7.53699 8.09701C7.52424 8.13419 7.50659 8.1695 7.48449 8.20201C7.46296 8.23257 7.43958 8.26179 7.41449 8.28951C7.30264 8.396 7.15475 8.45641 7.00033 8.45867Z" fill="white"/>
<path d="M9.04134 8.45867C8.96511 8.45775 8.8898 8.4419 8.81967 8.41201C8.74829 8.38382 8.68295 8.34224 8.62717 8.28951L8.55717 8.20201C8.53508 8.1695 8.51742 8.13419 8.50467 8.09701C8.48782 8.06395 8.47603 8.02856 8.46967 7.99201C8.46318 7.95342 8.45928 7.91445 8.45801 7.87534C8.46013 7.72071 8.52054 7.57259 8.62717 7.46059C8.68295 7.40786 8.74829 7.36628 8.81967 7.33809C8.92591 7.29342 9.04299 7.28121 9.15615 7.30301C9.26931 7.32482 9.37348 7.37965 9.45551 7.46059C9.56214 7.57259 9.62256 7.72071 9.62467 7.87534C9.6234 7.91445 9.6195 7.95342 9.61301 7.99201C9.60666 8.02856 9.59486 8.06395 9.57801 8.09701C9.56526 8.13419 9.5476 8.1695 9.52551 8.20201C9.50398 8.23257 9.4806 8.26179 9.45551 8.28951C9.34366 8.396 9.19577 8.45641 9.04134 8.45867Z" fill="white"/>
<path d="M4.95833 10.5001C4.8821 10.4992 4.8068 10.4833 4.73667 10.4534C4.66613 10.4244 4.60103 10.3836 4.54417 10.3327C4.43726 10.2204 4.37682 10.0718 4.375 9.91677C4.37592 9.84055 4.39178 9.76524 4.42167 9.69511C4.44851 9.62321 4.49026 9.55781 4.54417 9.50319C4.65698 9.3991 4.80484 9.34131 4.95833 9.34131C5.11183 9.34131 5.25969 9.3991 5.3725 9.50319C5.47886 9.61489 5.53926 9.76255 5.54167 9.91677C5.5394 10.0712 5.479 10.2191 5.3725 10.3309C5.26065 10.4374 5.11276 10.4978 4.95833 10.5001Z" fill="white"/>
<path d="M7.00033 10.5001C6.84614 10.4983 6.69828 10.4385 6.58616 10.3327C6.47925 10.2204 6.41882 10.0718 6.41699 9.91677C6.41791 9.84055 6.43377 9.76524 6.46366 9.69511C6.4905 9.62321 6.53225 9.55781 6.58616 9.50319C6.69897 9.3991 6.84683 9.34131 7.00033 9.34131C7.15382 9.34131 7.30168 9.3991 7.41449 9.50319C7.46847 9.55798 7.51022 9.62359 7.53699 9.69569C7.56681 9.76564 7.58266 9.84074 7.58366 9.91677C7.5814 10.0712 7.52099 10.2191 7.41449 10.3309C7.30264 10.4374 7.15475 10.4978 7.00033 10.5001Z" fill="white"/>
<path d="M9.04134 10.4998C8.88692 10.4975 8.73902 10.4371 8.62717 10.3306C8.5732 10.2758 8.53145 10.2102 8.50467 10.1381C8.47478 10.068 8.45893 9.99265 8.45801 9.91642C8.45901 9.84039 8.47486 9.76529 8.50467 9.69534C8.53145 9.62324 8.5732 9.55763 8.62717 9.50284C8.69508 9.43559 8.77848 9.38605 8.87002 9.35859C8.96157 9.33112 9.05846 9.32657 9.15217 9.34534C9.19081 9.35075 9.22827 9.36258 9.26301 9.38034C9.30019 9.39309 9.3355 9.41074 9.36801 9.43284C9.39857 9.45437 9.42779 9.47775 9.45551 9.50284C9.56187 9.61454 9.62226 9.7622 9.62467 9.91642C9.62241 10.0708 9.562 10.2187 9.45551 10.3306C9.34366 10.4371 9.19577 10.4975 9.04134 10.4998Z" fill="white"/>
<path d="M11.9587 5.73975H2.04199C1.9262 5.73898 1.81536 5.69264 1.73348 5.61076C1.6516 5.52888 1.60526 5.41804 1.60449 5.30225C1.60526 5.18645 1.6516 5.07561 1.73348 4.99373C1.81536 4.91185 1.9262 4.86551 2.04199 4.86475H11.9587C12.0745 4.86551 12.1853 4.91185 12.2672 4.99373C12.3491 5.07561 12.3954 5.18645 12.3962 5.30225C12.3954 5.41804 12.3491 5.52888 12.2672 5.61076C12.1853 5.69264 12.0745 5.73898 11.9587 5.73975Z" fill="white"/>
<path d="M9.33333 13.2707H4.66667C2.5375 13.2707 1.3125 12.0457 1.3125 9.9165V4.95817C1.3125 2.829 2.5375 1.604 4.66667 1.604H9.33333C11.4625 1.604 12.6875 2.829 12.6875 4.95817V9.9165C12.6875 12.0457 11.4625 13.2707 9.33333 13.2707ZM4.66667 2.479C2.99833 2.479 2.1875 3.28984 2.1875 4.95817V9.9165C2.1875 11.5848 2.99833 12.3957 4.66667 12.3957H9.33333C11.0017 12.3957 11.8125 11.5848 11.8125 9.9165V4.95817C11.8125 3.28984 11.0017 2.479 9.33333 2.479H4.66667Z" fill="white"/>
</svg>
